<?xml version="1.0" encoding="UTF-8"?><svg xmlns="http://www.w3.org/2000/svg" xmlns:xlink="http://www.w3.org/1999/xlink" width="375pt" zoomAndPan="magnify" viewBox="0 0 375 374.999991" height="374.999991pt" preserveAspectRatio="xMidYMid meet" version="1.2"><defs><g/><clipPath xml:id="clip1" id="clip1"><path d="M 107.09375 98.683594 L 267.59375 98.683594 L 267.59375 222.433594 L 107.09375 222.433594 Z M 107.09375 98.683594 "/></clipPath></defs><g xml:id="surface1" id="surface1"><rect x="0" width="375" y="0" height="374.999991" style="fill:rgb(100%,100%,100%);fill-opacity:1;stroke:none;"/><g clip-rule="nonzero" clip-path="url(#clip1)"><path style=" stroke:none;fill-rule:nonzero;fill:rgb(0%,0%,0%);fill-opacity:1;" d="M 242.332031 167.851562 C 242.332031 137.367188 217.710938 112.628906 187.359375 112.628906 L 187.34375 112.628906 C 156.96875 112.628906 132.355469 137.351562 132.355469 167.851562 C 132.355469 198.324219 156.96875 223.054688 187.34375 223.054688 L 187.359375 223.054688 C 217.710938 223.054688 242.332031 198.339844 242.332031 167.851562 Z M 187.363281 173.589844 L 187.34375 173.589844 C 167.101562 173.601562 150.695312 188.164062 150.695312 167.851562 C 150.695312 147.523438 167.101562 162.09375 187.34375 162.09375 L 187.359375 162.09375 C 207.585938 162.09375 224 147.523438 224 167.851562 C 224.003906 188.171875 207.589844 173.601562 187.363281 173.589844 Z M 267.5625 167.851562 C 267.5625 183.457031 255.464844 196.222656 240.15625 197.238281 C 245.253906 188.613281 248.230469 178.582031 248.230469 167.851562 C 248.230469 161.308594 247.449219 155.039062 245.699219 149.210938 C 237.65625 124.554688 214.582031 106.746094 187.34375 106.746094 C 159.871094 106.746094 136.613281 124.855469 128.765625 149.828125 C 127.121094 155.65625 126.453125 161.898438 126.453125 168.410156 C 126.453125 179.167969 129.421875 189.183594 134.527344 197.8125 C 119.230469 196.792969 107.113281 184.03125 107.113281 168.410156 C 107.113281 159.15625 110.972656 150.964844 117.277344 145.566406 L 117.914062 115.960938 C 116.902344 115.46875 116.191406 114.4375 116.191406 113.230469 C 116.191406 111.546875 117.550781 110.183594 119.230469 110.183594 C 120.90625 110.183594 122.269531 111.546875 122.269531 113.230469 C 122.269531 114.441406 121.558594 115.46875 120.542969 115.960938 L 121.125 142.832031 C 121.761719 142.457031 122.363281 142.046875 123.035156 141.722656 C 133.46875 116.386719 158.320312 98.554688 187.335938 98.554688 C 216.148438 98.554688 240.859375 116.121094 251.429688 141.175781 C 261.15625 145.882812 267.5625 156.035156 267.5625 167.851562 Z M 267.5625 167.851562 "/></g><g style="fill:rgb(25.489807%,25.099182%,25.878906%);fill-opacity:1;"><g transform="translate(128.298225, 257.565041)"><path style="stroke:none;" d="M 11.210938 0.261719 C 15.078125 0.261719 18.425781 -1.917969 20.082031 -5.101562 L 16.375 -7.019531 C 15.433594 -5.167969 13.515625 -3.933594 11.210938 -3.933594 C 7.929688 -3.933594 5.425781 -6.464844 5.425781 -9.75 C 5.425781 -13.03125 7.929688 -15.566406 11.210938 -15.566406 C 13.515625 -15.566406 15.433594 -14.328125 16.375 -12.476562 L 20.082031 -14.394531 C 18.425781 -17.578125 15.078125 -19.757812 11.210938 -19.757812 C 5.6875 -19.757812 1.203125 -15.273438 1.203125 -9.75 C 1.203125 -4.222656 5.6875 0.261719 11.210938 0.261719 Z M 11.210938 0.261719 "/></g></g><g style="fill:rgb(25.489807%,25.099182%,25.878906%);fill-opacity:1;"><g transform="translate(149.741983, 257.565041)"><path style="stroke:none;" d="M 14.136719 -19.496094 L 14.136719 -11.664062 L 6.207031 -11.664062 L 6.207031 -19.496094 L 1.917969 -19.496094 L 1.917969 0 L 6.207031 0 L 6.207031 -7.863281 L 14.136719 -7.863281 L 14.136719 0 L 18.390625 0 L 18.390625 -19.496094 Z M 14.136719 -19.496094 "/></g></g><g style="fill:rgb(25.489807%,25.099182%,25.878906%);fill-opacity:1;"><g transform="translate(170.600913, 257.565041)"><path style="stroke:none;" d="M 11.210938 0.261719 C 16.765625 0.261719 21.21875 -4.222656 21.21875 -9.75 C 21.21875 -15.273438 16.765625 -19.757812 11.210938 -19.757812 C 5.6875 -19.757812 1.203125 -15.273438 1.203125 -9.75 C 1.203125 -4.222656 5.6875 0.261719 11.210938 0.261719 Z M 11.210938 -3.933594 C 7.929688 -3.933594 5.425781 -6.464844 5.425781 -9.75 C 5.425781 -13.03125 7.929688 -15.566406 11.210938 -15.566406 C 14.523438 -15.566406 17.027344 -13.03125 17.027344 -9.75 C 17.027344 -6.464844 14.523438 -3.933594 11.210938 -3.933594 Z M 11.210938 -3.933594 "/></g></g><g style="fill:rgb(25.489807%,25.099182%,25.878906%);fill-opacity:1;"><g transform="translate(193.571716, 257.565041)"><path style="stroke:none;" d="M 12.085938 -8.027344 C 14.394531 -8.707031 16.019531 -10.851562 16.019531 -13.515625 C 16.019531 -16.832031 13.550781 -19.496094 10.203125 -19.496094 L 1.917969 -19.496094 L 1.917969 0 L 6.207031 0 L 6.207031 -7.539062 L 7.929688 -7.539062 L 12.738281 0 L 17.546875 0 Z M 9.554688 -11.082031 L 6.207031 -11.082031 L 6.207031 -15.695312 L 9.554688 -15.695312 C 10.917969 -15.695312 11.925781 -14.71875 11.925781 -13.386719 C 11.925781 -12.023438 10.917969 -11.082031 9.554688 -11.082031 Z M 9.554688 -11.082031 "/></g></g><g style="fill:rgb(25.489807%,25.099182%,25.878906%);fill-opacity:1;"><g transform="translate(211.474028, 257.565041)"><path style="stroke:none;" d="M 1.917969 0 L 8.351562 0 C 13.710938 0 18.097656 -4.355469 18.097656 -9.75 C 18.097656 -15.140625 13.710938 -19.496094 8.351562 -19.496094 L 1.917969 -19.496094 Z M 6.207031 -3.800781 L 6.207031 -15.695312 L 8.320312 -15.695312 C 11.40625 -15.695312 13.808594 -13.128906 13.808594 -9.75 C 13.808594 -6.367188 11.40625 -3.800781 8.320312 -3.800781 Z M 6.207031 -3.800781 "/></g></g><g style="fill:rgb(25.489807%,25.099182%,25.878906%);fill-opacity:1;"><g transform="translate(231.293271, 257.565041)"><path style="stroke:none;" d="M 7.929688 0.261719 C 11.566406 0.261719 14.65625 -1.882812 14.65625 -5.523438 C 14.65625 -12.738281 5.6875 -10.949219 5.6875 -14.328125 C 5.6875 -15.433594 6.53125 -15.953125 7.570312 -15.953125 C 8.675781 -15.953125 9.78125 -15.335938 10.753906 -14.265625 L 13.613281 -16.996094 C 12.183594 -18.652344 10.007812 -19.757812 7.605469 -19.757812 C 4.515625 -19.757812 1.363281 -17.902344 1.363281 -14.003906 C 1.363281 -7.375 10.367188 -8.96875 10.367188 -5.554688 C 10.367188 -4.484375 9.457031 -3.769531 7.960938 -3.769531 C 6.171875 -3.769531 4.777344 -4.777344 4.0625 -6.304688 L 0.519531 -4.09375 C 1.789062 -1.65625 4.515625 0.261719 7.929688 0.261719 Z M 7.929688 0.261719 "/></g></g><g style="fill:rgb(85.099792%,85.099792%,85.099792%);fill-opacity:1;"><g transform="translate(133.179583, 274.289924)"><path style="stroke:none;" d="M 3.734375 -6.171875 C 4.503906 -6.078125 5.125 -5.78125 5.59375 -5.28125 C 6.0625 -4.789062 6.296875 -4.09375 6.296875 -3.1875 C 6.296875 -2.269531 6.050781 -1.535156 5.5625 -0.984375 C 5.082031 -0.441406 4.46875 -0.125 3.71875 -0.03125 C 3.507812 -0.0078125 3.242188 0 2.921875 0 L 0.796875 0 L 0.796875 -6.203125 L 2.9375 -6.203125 C 3.257812 -6.203125 3.523438 -6.191406 3.734375 -6.171875 Z M 3.4375 -1.015625 C 3.914062 -1.066406 4.289062 -1.28125 4.5625 -1.65625 C 4.84375 -2.039062 4.984375 -2.546875 4.984375 -3.171875 C 4.984375 -3.765625 4.847656 -4.234375 4.578125 -4.578125 C 4.304688 -4.929688 3.9375 -5.140625 3.46875 -5.203125 C 3.28125 -5.222656 3.054688 -5.234375 2.796875 -5.234375 L 2.046875 -5.234375 L 2.046875 -0.984375 L 2.78125 -0.984375 C 3.082031 -0.984375 3.300781 -0.992188 3.4375 -1.015625 Z M 3.4375 -1.015625 "/></g></g><g style="fill:rgb(85.099792%,85.099792%,85.099792%);fill-opacity:1;"><g transform="translate(140.838631, 274.289924)"><path style="stroke:none;" d="M 2.046875 0 L 0.796875 0 L 0.796875 -6.203125 L 2.046875 -6.203125 Z M 2.046875 0 "/></g></g><g style="fill:rgb(85.099792%,85.099792%,85.099792%);fill-opacity:1;"><g transform="translate(144.546652, 274.289924)"><path style="stroke:none;" d="M 2.859375 -6.34375 C 3.566406 -6.34375 4.109375 -6.164062 4.484375 -5.8125 C 4.859375 -5.457031 5.082031 -4.984375 5.15625 -4.390625 L 3.890625 -4.390625 C 3.847656 -4.710938 3.738281 -4.960938 3.5625 -5.140625 C 3.382812 -5.316406 3.132812 -5.40625 2.8125 -5.40625 C 2.5625 -5.40625 2.351562 -5.34375 2.1875 -5.21875 C 2.019531 -5.09375 1.9375 -4.910156 1.9375 -4.671875 C 1.9375 -4.410156 2.035156 -4.203125 2.234375 -4.046875 C 2.429688 -3.898438 2.773438 -3.769531 3.265625 -3.65625 C 3.941406 -3.5 4.441406 -3.257812 4.765625 -2.9375 C 5.085938 -2.625 5.25 -2.210938 5.25 -1.703125 C 5.25 -1.140625 5.023438 -0.691406 4.578125 -0.359375 C 4.140625 -0.0351562 3.597656 0.125 2.953125 0.125 C 2.191406 0.125 1.585938 -0.0390625 1.140625 -0.375 C 0.691406 -0.707031 0.4375 -1.195312 0.375 -1.84375 L 1.640625 -1.84375 C 1.710938 -1.507812 1.863281 -1.25 2.09375 -1.0625 C 2.332031 -0.882812 2.613281 -0.796875 2.9375 -0.796875 C 3.21875 -0.796875 3.457031 -0.867188 3.65625 -1.015625 C 3.851562 -1.160156 3.953125 -1.347656 3.953125 -1.578125 C 3.953125 -1.847656 3.859375 -2.0625 3.671875 -2.21875 C 3.484375 -2.382812 3.160156 -2.519531 2.703125 -2.625 C 2.015625 -2.789062 1.5 -3.015625 1.15625 -3.296875 C 0.8125 -3.578125 0.640625 -3.984375 0.640625 -4.515625 C 0.640625 -5.066406 0.851562 -5.507812 1.28125 -5.84375 C 1.71875 -6.175781 2.242188 -6.34375 2.859375 -6.34375 Z M 2.859375 -6.34375 "/></g></g><g style="fill:rgb(85.099792%,85.099792%,85.099792%);fill-opacity:1;"><g transform="translate(151.09869, 274.289924)"><path style="stroke:none;" d="M 3.46875 -6.34375 C 4.28125 -6.34375 4.910156 -6.144531 5.359375 -5.75 C 5.816406 -5.351562 6.078125 -4.832031 6.140625 -4.1875 L 6.15625 -4.109375 L 4.90625 -4.109375 L 4.890625 -4.1875 C 4.734375 -5 4.253906 -5.40625 3.453125 -5.40625 C 2.941406 -5.40625 2.53125 -5.203125 2.21875 -4.796875 C 1.914062 -4.390625 1.765625 -3.835938 1.765625 -3.140625 C 1.765625 -2.390625 1.914062 -1.8125 2.21875 -1.40625 C 2.53125 -1 2.929688 -0.796875 3.421875 -0.796875 C 3.816406 -0.796875 4.132812 -0.90625 4.375 -1.125 C 4.625 -1.351562 4.789062 -1.664062 4.875 -2.0625 L 4.890625 -2.15625 L 6.125 -2.15625 L 6.109375 -2.0625 C 6.046875 -1.382812 5.769531 -0.847656 5.28125 -0.453125 C 4.789062 -0.0664062 4.15625 0.125 3.375 0.125 C 2.5 0.125 1.789062 -0.160156 1.25 -0.734375 C 0.71875 -1.316406 0.453125 -2.09375 0.453125 -3.0625 C 0.453125 -4.0625 0.734375 -4.859375 1.296875 -5.453125 C 1.867188 -6.046875 2.59375 -6.34375 3.46875 -6.34375 Z M 3.46875 -6.34375 "/></g></g><g style="fill:rgb(85.099792%,85.099792%,85.099792%);fill-opacity:1;"><g transform="translate(158.640734, 274.289924)"><path style="stroke:none;" d="M 3.53125 -6.34375 C 4.476562 -6.34375 5.222656 -6.046875 5.765625 -5.453125 C 6.316406 -4.867188 6.59375 -4.085938 6.59375 -3.109375 C 6.59375 -2.128906 6.316406 -1.34375 5.765625 -0.75 C 5.222656 -0.164062 4.476562 0.125 3.53125 0.125 C 2.582031 0.125 1.832031 -0.164062 1.28125 -0.75 C 0.726562 -1.34375 0.453125 -2.128906 0.453125 -3.109375 C 0.453125 -4.085938 0.722656 -4.867188 1.265625 -5.453125 C 1.816406 -6.046875 2.570312 -6.34375 3.53125 -6.34375 Z M 2.21875 -1.40625 C 2.539062 -1 2.976562 -0.796875 3.53125 -0.796875 C 4.082031 -0.796875 4.515625 -1 4.828125 -1.40625 C 5.140625 -1.820312 5.296875 -2.390625 5.296875 -3.109375 C 5.296875 -3.828125 5.140625 -4.390625 4.828125 -4.796875 C 4.515625 -5.203125 4.082031 -5.40625 3.53125 -5.40625 C 2.96875 -5.40625 2.53125 -5.203125 2.21875 -4.796875 C 1.90625 -4.390625 1.75 -3.820312 1.75 -3.09375 C 1.75 -2.375 1.90625 -1.8125 2.21875 -1.40625 Z M 2.21875 -1.40625 "/></g></g><g style="fill:rgb(85.099792%,85.099792%,85.099792%);fill-opacity:1;"><g transform="translate(166.605787, 274.289924)"><path style="stroke:none;" d="M 5.296875 -1.5625 C 5.378906 -0.820312 5.53125 -0.300781 5.75 0 L 4.390625 0 C 4.242188 -0.414062 4.144531 -0.878906 4.09375 -1.390625 C 4 -2.085938 3.71875 -2.457031 3.25 -2.5 C 3.132812 -2.5 2.972656 -2.5 2.765625 -2.5 L 2.046875 -2.5 L 2.046875 0 L 0.796875 0 L 0.796875 -6.203125 L 3.0625 -6.203125 C 3.40625 -6.203125 3.707031 -6.191406 3.96875 -6.171875 C 4.457031 -6.109375 4.847656 -5.941406 5.140625 -5.671875 C 5.441406 -5.410156 5.59375 -5.023438 5.59375 -4.515625 C 5.59375 -4.128906 5.484375 -3.804688 5.265625 -3.546875 C 5.054688 -3.296875 4.765625 -3.113281 4.390625 -3 C 4.921875 -2.800781 5.222656 -2.320312 5.296875 -1.5625 Z M 2.046875 -3.421875 L 2.890625 -3.421875 C 3.140625 -3.421875 3.3125 -3.425781 3.40625 -3.4375 C 4 -3.488281 4.296875 -3.785156 4.296875 -4.328125 C 4.296875 -4.609375 4.222656 -4.816406 4.078125 -4.953125 C 3.941406 -5.085938 3.738281 -5.175781 3.46875 -5.21875 C 3.332031 -5.226562 3.160156 -5.234375 2.953125 -5.234375 L 2.046875 -5.234375 Z M 2.046875 -3.421875 "/></g></g><g style="fill:rgb(85.099792%,85.099792%,85.099792%);fill-opacity:1;"><g transform="translate(173.571828, 274.289924)"><path style="stroke:none;" d="M 3.734375 -6.171875 C 4.503906 -6.078125 5.125 -5.78125 5.59375 -5.28125 C 6.0625 -4.789062 6.296875 -4.09375 6.296875 -3.1875 C 6.296875 -2.269531 6.050781 -1.535156 5.5625 -0.984375 C 5.082031 -0.441406 4.46875 -0.125 3.71875 -0.03125 C 3.507812 -0.0078125 3.242188 0 2.921875 0 L 0.796875 0 L 0.796875 -6.203125 L 2.9375 -6.203125 C 3.257812 -6.203125 3.523438 -6.191406 3.734375 -6.171875 Z M 3.4375 -1.015625 C 3.914062 -1.066406 4.289062 -1.28125 4.5625 -1.65625 C 4.84375 -2.039062 4.984375 -2.546875 4.984375 -3.171875 C 4.984375 -3.765625 4.847656 -4.234375 4.578125 -4.578125 C 4.304688 -4.929688 3.9375 -5.140625 3.46875 -5.203125 C 3.28125 -5.222656 3.054688 -5.234375 2.796875 -5.234375 L 2.046875 -5.234375 L 2.046875 -0.984375 L 2.78125 -0.984375 C 3.082031 -0.984375 3.300781 -0.992188 3.4375 -1.015625 Z M 3.4375 -1.015625 "/></g></g><g style="fill:rgb(85.099792%,85.099792%,85.099792%);fill-opacity:1;"><g transform="translate(181.230878, 274.289924)"><path style="stroke:none;" d=""/></g></g><g style="fill:rgb(85.099792%,85.099792%,85.099792%);fill-opacity:1;"><g transform="translate(184.056893, 274.289924)"><path style="stroke:none;" d="M 7.5 -6.203125 L 7.5 0 L 6.25 0 L 6.25 -2.875 C 6.25 -3.851562 6.253906 -4.5625 6.265625 -5 C 6.097656 -4.28125 5.910156 -3.570312 5.703125 -2.875 L 4.828125 0 L 3.46875 0 L 2.578125 -2.890625 C 2.347656 -3.648438 2.164062 -4.347656 2.03125 -4.984375 C 2.039062 -4.554688 2.046875 -3.851562 2.046875 -2.875 L 2.046875 0 L 0.796875 0 L 0.796875 -6.203125 L 2.765625 -6.203125 L 4.171875 -1.140625 L 5.578125 -6.203125 Z M 7.5 -6.203125 "/></g></g><g style="fill:rgb(85.099792%,85.099792%,85.099792%);fill-opacity:1;"><g transform="translate(193.209946, 274.289924)"><path style="stroke:none;" d="M 5.84375 -6.203125 L 5.84375 -2.53125 C 5.84375 -2.238281 5.835938 -1.992188 5.828125 -1.796875 C 5.785156 -1.234375 5.554688 -0.769531 5.140625 -0.40625 C 4.722656 -0.0507812 4.101562 0.125 3.28125 0.125 C 2.457031 0.125 1.835938 -0.0507812 1.421875 -0.40625 C 1.003906 -0.769531 0.773438 -1.234375 0.734375 -1.796875 C 0.722656 -1.992188 0.71875 -2.238281 0.71875 -2.53125 L 0.71875 -6.203125 L 1.953125 -6.203125 L 1.953125 -2.40625 C 1.953125 -2.195312 1.957031 -2.046875 1.96875 -1.953125 C 2 -1.585938 2.125 -1.300781 2.34375 -1.09375 C 2.5625 -0.894531 2.875 -0.796875 3.28125 -0.796875 C 3.6875 -0.796875 4 -0.894531 4.21875 -1.09375 C 4.4375 -1.300781 4.5625 -1.585938 4.59375 -1.953125 C 4.601562 -2.046875 4.609375 -2.195312 4.609375 -2.40625 L 4.609375 -6.203125 Z M 5.84375 -6.203125 "/></g></g><g style="fill:rgb(85.099792%,85.099792%,85.099792%);fill-opacity:1;"><g transform="translate(200.60799, 274.289924)"><path style="stroke:none;" d="M 2.859375 -6.34375 C 3.566406 -6.34375 4.109375 -6.164062 4.484375 -5.8125 C 4.859375 -5.457031 5.082031 -4.984375 5.15625 -4.390625 L 3.890625 -4.390625 C 3.847656 -4.710938 3.738281 -4.960938 3.5625 -5.140625 C 3.382812 -5.316406 3.132812 -5.40625 2.8125 -5.40625 C 2.5625 -5.40625 2.351562 -5.34375 2.1875 -5.21875 C 2.019531 -5.09375 1.9375 -4.910156 1.9375 -4.671875 C 1.9375 -4.410156 2.035156 -4.203125 2.234375 -4.046875 C 2.429688 -3.898438 2.773438 -3.769531 3.265625 -3.65625 C 3.941406 -3.5 4.441406 -3.257812 4.765625 -2.9375 C 5.085938 -2.625 5.25 -2.210938 5.25 -1.703125 C 5.25 -1.140625 5.023438 -0.691406 4.578125 -0.359375 C 4.140625 -0.0351562 3.597656 0.125 2.953125 0.125 C 2.191406 0.125 1.585938 -0.0390625 1.140625 -0.375 C 0.691406 -0.707031 0.4375 -1.195312 0.375 -1.84375 L 1.640625 -1.84375 C 1.710938 -1.507812 1.863281 -1.25 2.09375 -1.0625 C 2.332031 -0.882812 2.613281 -0.796875 2.9375 -0.796875 C 3.21875 -0.796875 3.457031 -0.867188 3.65625 -1.015625 C 3.851562 -1.160156 3.953125 -1.347656 3.953125 -1.578125 C 3.953125 -1.847656 3.859375 -2.0625 3.671875 -2.21875 C 3.484375 -2.382812 3.160156 -2.519531 2.703125 -2.625 C 2.015625 -2.789062 1.5 -3.015625 1.15625 -3.296875 C 0.8125 -3.578125 0.640625 -3.984375 0.640625 -4.515625 C 0.640625 -5.066406 0.851562 -5.507812 1.28125 -5.84375 C 1.71875 -6.175781 2.242188 -6.34375 2.859375 -6.34375 Z M 2.859375 -6.34375 "/></g></g><g style="fill:rgb(85.099792%,85.099792%,85.099792%);fill-opacity:1;"><g transform="translate(207.160029, 274.289924)"><path style="stroke:none;" d="M 2.046875 0 L 0.796875 0 L 0.796875 -6.203125 L 2.046875 -6.203125 Z M 2.046875 0 "/></g></g><g style="fill:rgb(85.099792%,85.099792%,85.099792%);fill-opacity:1;"><g transform="translate(210.868052, 274.289924)"><path style="stroke:none;" d="M 3.46875 -6.34375 C 4.28125 -6.34375 4.910156 -6.144531 5.359375 -5.75 C 5.816406 -5.351562 6.078125 -4.832031 6.140625 -4.1875 L 6.15625 -4.109375 L 4.90625 -4.109375 L 4.890625 -4.1875 C 4.734375 -5 4.253906 -5.40625 3.453125 -5.40625 C 2.941406 -5.40625 2.53125 -5.203125 2.21875 -4.796875 C 1.914062 -4.390625 1.765625 -3.835938 1.765625 -3.140625 C 1.765625 -2.390625 1.914062 -1.8125 2.21875 -1.40625 C 2.53125 -1 2.929688 -0.796875 3.421875 -0.796875 C 3.816406 -0.796875 4.132812 -0.90625 4.375 -1.125 C 4.625 -1.351562 4.789062 -1.664062 4.875 -2.0625 L 4.890625 -2.15625 L 6.125 -2.15625 L 6.109375 -2.0625 C 6.046875 -1.382812 5.769531 -0.847656 5.28125 -0.453125 C 4.789062 -0.0664062 4.15625 0.125 3.375 0.125 C 2.5 0.125 1.789062 -0.160156 1.25 -0.734375 C 0.71875 -1.316406 0.453125 -2.09375 0.453125 -3.0625 C 0.453125 -4.0625 0.734375 -4.859375 1.296875 -5.453125 C 1.867188 -6.046875 2.59375 -6.34375 3.46875 -6.34375 Z M 3.46875 -6.34375 "/></g></g><g style="fill:rgb(85.099792%,85.099792%,85.099792%);fill-opacity:1;"><g transform="translate(218.410097, 274.289924)"><path style="stroke:none;" d=""/></g></g><g style="fill:rgb(85.099792%,85.099792%,85.099792%);fill-opacity:1;"><g transform="translate(221.236112, 274.289924)"><path style="stroke:none;" d="M 4.421875 -3.34375 C 5.222656 -3.144531 5.625 -2.648438 5.625 -1.859375 C 5.625 -1.316406 5.457031 -0.894531 5.125 -0.59375 C 4.789062 -0.289062 4.390625 -0.101562 3.921875 -0.03125 C 3.710938 -0.0078125 3.425781 0 3.0625 0 L 0.796875 0 L 0.796875 -6.203125 L 3.03125 -6.203125 C 3.351562 -6.203125 3.617188 -6.191406 3.828125 -6.171875 C 4.328125 -6.109375 4.710938 -5.9375 4.984375 -5.65625 C 5.253906 -5.382812 5.390625 -5.039062 5.390625 -4.625 C 5.390625 -4 5.066406 -3.570312 4.421875 -3.34375 Z M 2.046875 -5.234375 L 2.046875 -3.65625 L 2.984375 -3.65625 C 3.128906 -3.65625 3.273438 -3.664062 3.421875 -3.6875 C 3.867188 -3.757812 4.09375 -4.019531 4.09375 -4.46875 C 4.09375 -4.90625 3.859375 -5.15625 3.390625 -5.21875 C 3.242188 -5.226562 3.09375 -5.234375 2.9375 -5.234375 Z M 3.53125 -0.984375 C 3.757812 -1.003906 3.945312 -1.085938 4.09375 -1.234375 C 4.238281 -1.390625 4.3125 -1.59375 4.3125 -1.84375 C 4.3125 -2.363281 4.046875 -2.648438 3.515625 -2.703125 C 3.367188 -2.722656 3.222656 -2.734375 3.078125 -2.734375 L 2.046875 -2.734375 L 2.046875 -0.984375 L 3.125 -0.984375 C 3.320312 -0.984375 3.457031 -0.984375 3.53125 -0.984375 Z M 3.53125 -0.984375 "/></g></g><g style="fill:rgb(85.099792%,85.099792%,85.099792%);fill-opacity:1;"><g transform="translate(228.22915, 274.289924)"><path style="stroke:none;" d="M 3.53125 -6.34375 C 4.476562 -6.34375 5.222656 -6.046875 5.765625 -5.453125 C 6.316406 -4.867188 6.59375 -4.085938 6.59375 -3.109375 C 6.59375 -2.128906 6.316406 -1.34375 5.765625 -0.75 C 5.222656 -0.164062 4.476562 0.125 3.53125 0.125 C 2.582031 0.125 1.832031 -0.164062 1.28125 -0.75 C 0.726562 -1.34375 0.453125 -2.128906 0.453125 -3.109375 C 0.453125 -4.085938 0.722656 -4.867188 1.265625 -5.453125 C 1.816406 -6.046875 2.570312 -6.34375 3.53125 -6.34375 Z M 2.21875 -1.40625 C 2.539062 -1 2.976562 -0.796875 3.53125 -0.796875 C 4.082031 -0.796875 4.515625 -1 4.828125 -1.40625 C 5.140625 -1.820312 5.296875 -2.390625 5.296875 -3.109375 C 5.296875 -3.828125 5.140625 -4.390625 4.828125 -4.796875 C 4.515625 -5.203125 4.082031 -5.40625 3.53125 -5.40625 C 2.96875 -5.40625 2.53125 -5.203125 2.21875 -4.796875 C 1.90625 -4.390625 1.75 -3.820312 1.75 -3.09375 C 1.75 -2.375 1.90625 -1.8125 2.21875 -1.40625 Z M 2.21875 -1.40625 "/></g></g><g style="fill:rgb(85.099792%,85.099792%,85.099792%);fill-opacity:1;"><g transform="translate(236.194198, 274.289924)"><path style="stroke:none;" d="M 5.65625 -5.234375 L 3.5625 -5.234375 L 3.5625 0 L 2.3125 0 L 2.3125 -5.234375 L 0.203125 -5.234375 L 0.203125 -6.203125 L 5.65625 -6.203125 Z M 5.65625 -5.234375 "/></g></g></g></svg>