<?xml version="1.0" encoding="UTF-8"?><svg xmlns="http://www.w3.org/2000/svg" xmlns:xlink="http://www.w3.org/1999/xlink" width="375pt" zoomAndPan="magnify" viewBox="0 0 375 374.999991" height="374.999991pt" preserveAspectRatio="xMidYMid meet" version="1.2"><defs><g/><clipPath xml:id="clip1" id="clip1"><path d="M 112.5 94.25 L 262.5 94.25 L 262.5 215.75 L 112.5 215.75 Z M 112.5 94.25 "/></clipPath></defs><g xml:id="surface1" id="surface1"><rect x="0" width="375" y="0" height="374.999991" style="fill:rgb(100%,100%,100%);fill-opacity:1;stroke:none;"/><rect x="0" width="375" y="0" height="374.999991" style="fill:rgb(100%,100%,100%);fill-opacity:1;stroke:none;"/><rect x="0" width="375" y="0" height="374.999991" style="fill:rgb(100%,100%,100%);fill-opacity:1;stroke:none;"/><g style="fill:rgb(15.289307%,15.289307%,20.779419%);fill-opacity:1;"><g transform="translate(121.570309, 253.10947)"><path style="stroke:none;" d="M 1.75 -8.734375 L 1.75 -18.8125 C 1.75 -21.90625 2.585938 -24.171875 4.265625 -25.609375 C 5.953125 -27.054688 8.15625 -27.78125 10.875 -27.78125 C 13.65625 -27.78125 15.9375 -27.109375 17.71875 -25.765625 C 19.507812 -24.421875 20.40625 -22.570312 20.40625 -20.21875 C 20.40625 -19.125 20.175781 -18.378906 19.71875 -17.984375 C 19.257812 -17.597656 18.5 -17.40625 17.4375 -17.40625 C 15.539062 -17.40625 14.554688 -18 14.484375 -19.1875 C 14.398438 -21.46875 13.269531 -22.609375 11.09375 -22.609375 C 8.8125 -22.609375 7.671875 -21.34375 7.671875 -18.8125 L 7.671875 -8.734375 C 7.671875 -6.203125 8.828125 -4.9375 11.140625 -4.9375 C 11.847656 -4.9375 12.4375 -5.050781 12.90625 -5.28125 C 13.375 -5.507812 13.707031 -5.859375 13.90625 -6.328125 C 14.113281 -6.796875 14.25 -7.179688 14.3125 -7.484375 C 14.375 -7.785156 14.429688 -8.203125 14.484375 -8.734375 C 14.578125 -9.929688 15.550781 -10.53125 17.40625 -10.53125 C 18.488281 -10.53125 19.257812 -10.332031 19.71875 -9.9375 C 20.175781 -9.539062 20.40625 -8.800781 20.40625 -7.71875 C 20.40625 -5.257812 19.507812 -3.316406 17.71875 -1.890625 C 15.9375 -0.472656 13.65625 0.234375 10.875 0.234375 C 8.15625 0.234375 5.953125 -0.488281 4.265625 -1.9375 C 2.585938 -3.382812 1.75 -5.648438 1.75 -8.734375 Z M 1.75 -8.734375 "/></g></g><g style="fill:rgb(15.289307%,15.289307%,20.779419%);fill-opacity:1;"><g transform="translate(142.92195, 253.10947)"><path style="stroke:none;" d="M 2.046875 -1.828125 L 2.046875 -25.984375 C 2.046875 -26.566406 2.335938 -27.007812 2.921875 -27.3125 C 3.503906 -27.625 4.203125 -27.78125 5.015625 -27.78125 C 5.828125 -27.78125 6.523438 -27.625 7.109375 -27.3125 C 7.691406 -27.007812 7.984375 -26.566406 7.984375 -25.984375 L 7.984375 -16.6875 L 15.546875 -16.6875 L 15.546875 -25.984375 C 15.546875 -26.566406 15.835938 -27.007812 16.421875 -27.3125 C 17.003906 -27.625 17.695312 -27.78125 18.5 -27.78125 C 19.3125 -27.78125 20.007812 -27.625 20.59375 -27.3125 C 21.175781 -27.007812 21.46875 -26.566406 21.46875 -25.984375 L 21.46875 -1.828125 C 21.46875 -1.242188 21.175781 -0.789062 20.59375 -0.46875 C 20.007812 -0.15625 19.3125 0 18.5 0 C 17.695312 0 17.003906 -0.15625 16.421875 -0.46875 C 15.835938 -0.789062 15.546875 -1.242188 15.546875 -1.828125 L 15.546875 -12.125 L 7.984375 -12.125 L 7.984375 -1.828125 C 7.984375 -1.242188 7.691406 -0.789062 7.109375 -0.46875 C 6.523438 -0.15625 5.828125 0 5.015625 0 C 4.203125 0 3.503906 -0.15625 2.921875 -0.46875 C 2.335938 -0.789062 2.046875 -1.242188 2.046875 -1.828125 Z M 2.046875 -1.828125 "/></g></g><g style="fill:rgb(15.289307%,15.289307%,20.779419%);fill-opacity:1;"><g transform="translate(166.439145, 253.10947)"><path style="stroke:none;" d="M 1.75 -8.734375 L 1.75 -18.8125 C 1.75 -21.90625 2.597656 -24.171875 4.296875 -25.609375 C 5.992188 -27.054688 8.25 -27.78125 11.0625 -27.78125 C 13.894531 -27.78125 16.160156 -27.054688 17.859375 -25.609375 C 19.554688 -24.171875 20.40625 -21.90625 20.40625 -18.8125 L 20.40625 -8.734375 C 20.40625 -5.648438 19.554688 -3.382812 17.859375 -1.9375 C 16.160156 -0.488281 13.894531 0.234375 11.0625 0.234375 C 8.25 0.234375 5.992188 -0.488281 4.296875 -1.9375 C 2.597656 -3.382812 1.75 -5.648438 1.75 -8.734375 Z M 7.671875 -8.734375 C 7.671875 -6.203125 8.800781 -4.9375 11.0625 -4.9375 C 13.34375 -4.9375 14.484375 -6.203125 14.484375 -8.734375 L 14.484375 -18.8125 C 14.484375 -21.34375 13.34375 -22.609375 11.0625 -22.609375 C 8.800781 -22.609375 7.671875 -21.34375 7.671875 -18.8125 Z M 7.671875 -8.734375 "/></g></g><g style="fill:rgb(15.289307%,15.289307%,20.779419%);fill-opacity:1;"><g transform="translate(188.588623, 253.10947)"><path style="stroke:none;" d="M 2.046875 -1.828125 L 2.046875 -25.984375 C 2.046875 -26.472656 2.21875 -26.894531 2.5625 -27.25 C 2.90625 -27.601562 3.34375 -27.78125 3.875 -27.78125 L 11.734375 -27.78125 C 17.972656 -27.78125 21.09375 -25.066406 21.09375 -19.640625 C 21.09375 -15.691406 19.554688 -13.125 16.484375 -11.9375 L 21.125 -3.53125 C 21.25 -3.351562 21.3125 -3.125 21.3125 -2.84375 C 21.3125 -2.113281 20.910156 -1.414062 20.109375 -0.75 C 19.316406 -0.09375 18.476562 0.234375 17.59375 0.234375 C 16.707031 0.234375 16.070312 -0.132812 15.6875 -0.875 L 10.484375 -10.984375 L 7.984375 -10.984375 L 7.984375 -1.828125 C 7.984375 -1.242188 7.691406 -0.789062 7.109375 -0.46875 C 6.523438 -0.15625 5.828125 0 5.015625 0 C 4.203125 0 3.503906 -0.15625 2.921875 -0.46875 C 2.335938 -0.789062 2.046875 -1.242188 2.046875 -1.828125 Z M 7.984375 -15.546875 L 11.734375 -15.546875 C 12.847656 -15.546875 13.695312 -15.816406 14.28125 -16.359375 C 14.863281 -16.898438 15.15625 -17.800781 15.15625 -19.0625 C 15.15625 -20.332031 14.863281 -21.238281 14.28125 -21.78125 C 13.695312 -22.332031 12.847656 -22.609375 11.734375 -22.609375 L 7.984375 -22.609375 Z M 7.984375 -15.546875 "/></g></g><g style="fill:rgb(15.289307%,15.289307%,20.779419%);fill-opacity:1;"><g transform="translate(210.776095, 253.10947)"><path style="stroke:none;" d="M 2.046875 -1.78125 L 2.046875 -25.984375 C 2.046875 -26.472656 2.285156 -26.894531 2.765625 -27.25 C 3.253906 -27.601562 3.878906 -27.78125 4.640625 -27.78125 L 11.359375 -27.78125 C 14.203125 -27.78125 16.46875 -27.054688 18.15625 -25.609375 C 19.851562 -24.171875 20.703125 -21.90625 20.703125 -18.8125 L 20.703125 -8.96875 C 20.703125 -5.875 19.851562 -3.601562 18.15625 -2.15625 C 16.46875 -0.71875 14.203125 0 11.359375 0 L 4.640625 0 C 3.878906 0 3.253906 -0.175781 2.765625 -0.53125 C 2.285156 -0.882812 2.046875 -1.300781 2.046875 -1.78125 Z M 7.984375 -5.171875 L 11.359375 -5.171875 C 13.640625 -5.171875 14.78125 -6.4375 14.78125 -8.96875 L 14.78125 -18.8125 C 14.78125 -21.34375 13.640625 -22.609375 11.359375 -22.609375 L 7.984375 -22.609375 Z M 7.984375 -5.171875 "/></g></g><g style="fill:rgb(15.289307%,15.289307%,20.779419%);fill-opacity:1;"><g transform="translate(233.19151, 253.10947)"><path style="stroke:none;" d="M 0.71875 -4.5625 C 0.71875 -5.269531 0.976562 -5.976562 1.5 -6.6875 C 2.019531 -7.394531 2.625 -7.75 3.3125 -7.75 C 3.6875 -7.75 4.109375 -7.601562 4.578125 -7.3125 C 5.046875 -7.019531 5.472656 -6.695312 5.859375 -6.34375 C 6.253906 -5.988281 6.804688 -5.664062 7.515625 -5.375 C 8.234375 -5.082031 8.984375 -4.9375 9.765625 -4.9375 C 10.753906 -4.9375 11.613281 -5.144531 12.34375 -5.5625 C 13.082031 -5.976562 13.453125 -6.601562 13.453125 -7.4375 C 13.453125 -8.28125 13.039062 -9.019531 12.21875 -9.65625 C 11.394531 -10.289062 10.394531 -10.863281 9.21875 -11.375 C 8.039062 -11.894531 6.851562 -12.476562 5.65625 -13.125 C 4.46875 -13.769531 3.460938 -14.6875 2.640625 -15.875 C 1.816406 -17.070312 1.40625 -18.492188 1.40625 -20.140625 C 1.40625 -22.773438 2.351562 -24.742188 4.25 -26.046875 C 6.15625 -27.347656 8.453125 -28 11.140625 -28 C 11.796875 -28 12.484375 -27.960938 13.203125 -27.890625 C 13.921875 -27.816406 14.726562 -27.671875 15.625 -27.453125 C 16.53125 -27.234375 17.269531 -26.882812 17.84375 -26.40625 C 18.414062 -25.925781 18.703125 -25.34375 18.703125 -24.65625 C 18.703125 -24 18.488281 -23.316406 18.0625 -22.609375 C 17.644531 -21.898438 17.070312 -21.546875 16.34375 -21.546875 C 16.039062 -21.546875 15.394531 -21.785156 14.40625 -22.265625 C 13.414062 -22.742188 12.328125 -22.984375 11.140625 -22.984375 C 9.867188 -22.984375 8.914062 -22.757812 8.28125 -22.3125 C 7.644531 -21.875 7.328125 -21.335938 7.328125 -20.703125 C 7.328125 -20.128906 7.625 -19.597656 8.21875 -19.109375 C 8.820312 -18.628906 9.566406 -18.21875 10.453125 -17.875 C 11.335938 -17.53125 12.304688 -17.085938 13.359375 -16.546875 C 14.410156 -16.003906 15.378906 -15.410156 16.265625 -14.765625 C 17.148438 -14.117188 17.890625 -13.210938 18.484375 -12.046875 C 19.078125 -10.878906 19.375 -9.550781 19.375 -8.0625 C 19.375 -5.394531 18.5 -3.320312 16.75 -1.84375 C 15.007812 -0.363281 12.71875 0.375 9.875 0.375 C 7.414062 0.375 5.273438 -0.128906 3.453125 -1.140625 C 1.628906 -2.148438 0.71875 -3.289062 0.71875 -4.5625 Z M 0.71875 -4.5625 "/></g></g><path style=" stroke:none;fill-rule:nonzero;fill:rgb(100%,100%,100%);fill-opacity:1;" d="M 167.277344 187.667969 C 167.277344 188.542969 167.234375 189.417969 167.152344 190.289062 C 167.066406 191.160156 166.9375 192.027344 166.765625 192.882812 C 166.59375 193.742188 166.382812 194.589844 166.128906 195.429688 C 165.875 196.265625 165.582031 197.089844 165.246094 197.898438 C 164.910156 198.707031 164.539062 199.5 164.125 200.269531 C 163.714844 201.042969 163.265625 201.792969 162.777344 202.519531 C 162.292969 203.25 161.773438 203.953125 161.21875 204.628906 C 160.664062 205.304688 160.078125 205.953125 159.457031 206.574219 C 158.839844 207.191406 158.191406 207.777344 157.515625 208.335938 C 156.839844 208.890625 156.140625 209.410156 155.414062 209.898438 C 154.683594 210.382812 153.9375 210.832031 153.164062 211.246094 C 152.394531 211.660156 151.605469 212.03125 150.796875 212.367188 C 149.988281 212.703125 149.164062 212.996094 148.328125 213.25 C 147.492188 213.507812 146.644531 213.71875 145.789062 213.890625 C 144.929688 214.058594 144.066406 214.1875 143.195312 214.273438 C 142.324219 214.359375 141.453125 214.402344 140.578125 214.402344 C 139.703125 214.402344 138.832031 214.359375 137.960938 214.273438 C 137.089844 214.1875 136.226562 214.058594 135.367188 213.890625 C 134.511719 213.71875 133.664062 213.507812 132.828125 213.25 C 131.992188 212.996094 131.167969 212.703125 130.359375 212.367188 C 129.550781 212.03125 128.761719 211.660156 127.992188 211.246094 C 127.21875 210.832031 126.472656 210.382812 125.742188 209.898438 C 125.015625 209.410156 124.316406 208.890625 123.640625 208.335938 C 122.964844 207.777344 122.316406 207.191406 121.699219 206.574219 C 121.078125 205.953125 120.492188 205.304688 119.9375 204.628906 C 119.382812 203.953125 118.863281 203.25 118.378906 202.519531 C 117.890625 201.792969 117.441406 201.042969 117.03125 200.269531 C 116.617188 199.5 116.246094 198.707031 115.910156 197.898438 C 115.574219 197.089844 115.28125 196.265625 115.027344 195.429688 C 114.773438 194.589844 114.5625 193.742188 114.390625 192.882812 C 114.21875 192.027344 114.089844 191.160156 114.003906 190.289062 C 113.921875 189.417969 113.878906 188.542969 113.878906 187.667969 C 113.878906 186.792969 113.921875 185.917969 114.003906 185.046875 C 114.089844 184.175781 114.21875 183.3125 114.390625 182.453125 C 114.5625 181.59375 114.773438 180.746094 115.027344 179.90625 C 115.28125 179.070312 115.574219 178.246094 115.910156 177.4375 C 116.246094 176.628906 116.617188 175.839844 117.03125 175.066406 C 117.441406 174.292969 117.890625 173.542969 118.378906 172.816406 C 118.863281 172.085938 119.382812 171.386719 119.9375 170.707031 C 120.492188 170.03125 121.078125 169.382812 121.699219 168.765625 C 122.316406 168.144531 122.964844 167.558594 123.640625 167.003906 C 124.316406 166.445312 125.015625 165.925781 125.742188 165.441406 C 126.472656 164.953125 127.21875 164.503906 127.992188 164.089844 C 128.761719 163.679688 129.550781 163.304688 130.359375 162.96875 C 131.167969 162.632812 131.992188 162.339844 132.828125 162.085938 C 133.664062 161.832031 134.511719 161.617188 135.367188 161.449219 C 136.226562 161.277344 137.089844 161.148438 137.960938 161.0625 C 138.832031 160.976562 139.703125 160.933594 140.578125 160.933594 C 141.453125 160.933594 142.324219 160.976562 143.195312 161.0625 C 144.066406 161.148438 144.929688 161.277344 145.789062 161.449219 C 146.644531 161.617188 147.492188 161.832031 148.328125 162.085938 C 149.164062 162.339844 149.988281 162.632812 150.796875 162.96875 C 151.605469 163.304688 152.394531 163.679688 153.164062 164.089844 C 153.9375 164.503906 154.683594 164.953125 155.414062 165.441406 C 156.140625 165.925781 156.839844 166.445312 157.515625 167.003906 C 158.191406 167.558594 158.839844 168.144531 159.457031 168.765625 C 160.078125 169.382812 160.664062 170.03125 161.21875 170.707031 C 161.773438 171.386719 162.292969 172.085938 162.777344 172.816406 C 163.265625 173.542969 163.714844 174.292969 164.125 175.066406 C 164.539062 175.839844 164.910156 176.628906 165.246094 177.4375 C 165.582031 178.246094 165.875 179.070312 166.128906 179.90625 C 166.382812 180.746094 166.59375 181.59375 166.765625 182.453125 C 166.9375 183.3125 167.066406 184.175781 167.152344 185.046875 C 167.234375 185.917969 167.277344 186.792969 167.277344 187.667969 Z M 167.277344 187.667969 "/><path style=" stroke:none;fill-rule:nonzero;fill:rgb(100%,100%,100%);fill-opacity:1;" d="M 233.324219 187.667969 C 233.324219 188.542969 233.28125 189.417969 233.195312 190.289062 C 233.109375 191.160156 232.980469 192.027344 232.8125 192.882812 C 232.640625 193.742188 232.429688 194.589844 232.175781 195.429688 C 231.921875 196.265625 231.625 197.089844 231.292969 197.898438 C 230.957031 198.707031 230.585938 199.5 230.171875 200.269531 C 229.757812 201.042969 229.3125 201.792969 228.824219 202.519531 C 228.339844 203.25 227.820312 203.953125 227.265625 204.628906 C 226.710938 205.304688 226.121094 205.953125 225.503906 206.574219 C 224.886719 207.191406 224.238281 207.777344 223.5625 208.335938 C 222.886719 208.890625 222.183594 209.410156 221.457031 209.898438 C 220.730469 210.382812 219.980469 210.832031 219.210938 211.246094 C 218.4375 211.660156 217.648438 212.03125 216.839844 212.367188 C 216.035156 212.703125 215.210938 212.996094 214.375 213.25 C 213.539062 213.507812 212.691406 213.71875 211.832031 213.890625 C 210.976562 214.058594 210.109375 214.1875 209.242188 214.273438 C 208.371094 214.359375 207.5 214.402344 206.625 214.402344 C 205.75 214.402344 204.875 214.359375 204.007812 214.273438 C 203.136719 214.1875 202.273438 214.058594 201.414062 213.890625 C 200.558594 213.71875 199.710938 213.507812 198.871094 213.25 C 198.035156 212.996094 197.214844 212.703125 196.40625 212.367188 C 195.597656 212.03125 194.808594 211.660156 194.035156 211.246094 C 193.265625 210.832031 192.515625 210.382812 191.789062 209.898438 C 191.0625 209.410156 190.359375 208.890625 189.683594 208.335938 C 189.007812 207.777344 188.363281 207.191406 187.742188 206.574219 C 187.125 205.953125 186.539062 205.304688 185.984375 204.628906 C 185.429688 203.953125 184.910156 203.25 184.421875 202.519531 C 183.9375 201.792969 183.488281 201.042969 183.074219 200.269531 C 182.664062 199.5 182.289062 198.707031 181.957031 197.898438 C 181.621094 197.089844 181.328125 196.265625 181.074219 195.429688 C 180.820312 194.589844 180.605469 193.742188 180.4375 192.882812 C 180.265625 192.027344 180.136719 191.160156 180.050781 190.289062 C 179.964844 189.417969 179.921875 188.542969 179.921875 187.667969 C 179.921875 186.792969 179.964844 185.917969 180.050781 185.046875 C 180.136719 184.175781 180.265625 183.3125 180.4375 182.453125 C 180.605469 181.59375 180.820312 180.746094 181.074219 179.90625 C 181.328125 179.070312 181.621094 178.246094 181.957031 177.4375 C 182.289062 176.628906 182.664062 175.839844 183.074219 175.066406 C 183.488281 174.292969 183.9375 173.542969 184.421875 172.816406 C 184.910156 172.085938 185.429688 171.386719 185.984375 170.707031 C 186.539062 170.03125 187.125 169.382812 187.742188 168.765625 C 188.363281 168.144531 189.007812 167.558594 189.683594 167.003906 C 190.359375 166.445312 191.0625 165.925781 191.789062 165.441406 C 192.515625 164.953125 193.265625 164.503906 194.035156 164.089844 C 194.808594 163.679688 195.597656 163.304688 196.40625 162.96875 C 197.214844 162.632812 198.035156 162.339844 198.871094 162.085938 C 199.710938 161.832031 200.558594 161.617188 201.414062 161.449219 C 202.273438 161.277344 203.136719 161.148438 204.007812 161.0625 C 204.875 160.976562 205.75 160.933594 206.625 160.933594 C 207.5 160.933594 208.371094 160.976562 209.242188 161.0625 C 210.109375 161.148438 210.976562 161.277344 211.832031 161.449219 C 212.691406 161.617188 213.539062 161.832031 214.375 162.085938 C 215.210938 162.339844 216.035156 162.632812 216.839844 162.96875 C 217.648438 163.304688 218.4375 163.679688 219.210938 164.089844 C 219.980469 164.503906 220.730469 164.953125 221.457031 165.441406 C 222.183594 165.925781 222.886719 166.445312 223.5625 167.003906 C 224.238281 167.558594 224.886719 168.144531 225.503906 168.765625 C 226.121094 169.382812 226.710938 170.03125 227.265625 170.707031 C 227.820312 171.386719 228.339844 172.085938 228.824219 172.816406 C 229.3125 173.542969 229.757812 174.292969 230.171875 175.066406 C 230.585938 175.839844 230.957031 176.628906 231.292969 177.4375 C 231.625 178.246094 231.921875 179.070312 232.175781 179.90625 C 232.429688 180.746094 232.640625 181.59375 232.8125 182.453125 C 232.980469 183.3125 233.109375 184.175781 233.195312 185.046875 C 233.28125 185.917969 233.324219 186.792969 233.324219 187.667969 Z M 233.324219 187.667969 "/><path style=" stroke:none;fill-rule:nonzero;fill:rgb(90.19928%,90.19928%,90.19928%);fill-opacity:1;" d="M 141.359375 161.703125 C 133.722656 162.898438 120.859375 170.152344 120.859375 188.5 C 120.859375 193.171875 124.808594 212.621094 144.09375 212.621094 C 140.320312 215.371094 133.871094 212.738281 129.777344 210.496094 C 124.898438 207.8125 119.277344 204.054688 116.949219 198.992188 C 114.710938 194.132812 114.136719 188.578125 114.15625 183.226562 C 114.15625 180.695312 115.855469 178.078125 116.878906 175.757812 C 118.074219 173.050781 120.484375 171.097656 122.792969 169.253906 C 128.035156 165.078125 133.988281 160.671875 140.664062 161.210938 "/><path style=" stroke:none;fill-rule:nonzero;fill:rgb(90.19928%,90.19928%,90.19928%);fill-opacity:1;" d="M 141.300781 161.503906 C 125.65625 164.144531 117.296875 181.574219 122.101562 196.046875 C 124.4375 203.082031 129.292969 209.300781 136.511719 211.691406 C 138.515625 212.355469 140.585938 212.296875 142.582031 212.804688 C 143.140625 212.945312 144.84375 212.589844 142.070312 213.359375 C 141.085938 213.601562 140.09375 213.671875 139.085938 213.570312 C 136.890625 213.394531 134.730469 212.625 132.734375 211.746094 C 127.003906 209.21875 120.527344 205.265625 117.484375 199.613281 C 115.289062 195.53125 114.605469 190.625 114.410156 186.074219 C 114.230469 181.808594 115.542969 177.898438 117.90625 174.324219 C 120.269531 170.753906 124.597656 167.886719 128.117188 165.542969 C 131.914062 163.023438 136.027344 161.199219 140.664062 161.414062 C 140.933594 161.425781 140.933594 161.007812 140.664062 160.988281 C 132.925781 160.617188 126.09375 165.914062 120.574219 170.796875 C 117.792969 173.257812 116.117188 176.332031 114.757812 179.765625 C 113.378906 183.230469 113.910156 187.253906 114.433594 190.863281 C 114.996094 194.707031 116.078125 198.675781 118.429688 201.832031 C 120.476562 204.570312 123.257812 206.71875 126.117188 208.550781 C 130.863281 211.59375 138.621094 216.316406 144.199219 212.800781 C 144.28125 212.746094 144.3125 212.667969 144.285156 212.570312 C 144.257812 212.472656 144.195312 212.417969 144.09375 212.410156 C 136.828125 212.3125 130.34375 209.308594 126.140625 203.285156 C 123.367188 199.28125 121.710938 194.859375 121.164062 190.019531 C 119.785156 177.164062 128.449219 164.097656 141.414062 161.902344 C 141.675781 161.855469 141.5625 161.453125 141.300781 161.5 Z M 141.300781 161.503906 "/><path style=" stroke:none;fill-rule:nonzero;fill:rgb(90.19928%,90.19928%,90.19928%);fill-opacity:1;" d="M 206.878906 161.703125 C 199.242188 162.90625 186.382812 170.152344 186.382812 188.5 C 186.382812 193.175781 190.339844 212.625 209.617188 212.625 C 205.84375 215.375 199.394531 212.742188 195.300781 210.5 C 190.421875 207.816406 184.800781 204.058594 182.472656 198.996094 C 180.234375 194.136719 179.660156 188.585938 179.679688 183.238281 C 179.679688 180.707031 181.378906 178.085938 182.402344 175.769531 C 183.597656 173.058594 186.007812 171.109375 188.316406 169.261719 C 193.558594 165.089844 199.511719 160.683594 206.1875 161.222656 "/><path style=" stroke:none;fill-rule:nonzero;fill:rgb(90.19928%,90.19928%,90.19928%);fill-opacity:1;" d="M 206.824219 161.503906 C 191.1875 164.144531 182.820312 181.574219 187.625 196.046875 C 189.957031 203.082031 194.8125 209.300781 202.03125 211.691406 C 204.039062 212.355469 206.109375 212.296875 208.105469 212.804688 C 208.664062 212.945312 210.363281 212.589844 207.589844 213.359375 C 206.609375 213.601562 205.613281 213.671875 204.605469 213.570312 C 202.414062 213.394531 200.25 212.625 198.257812 211.746094 C 192.527344 209.21875 186.050781 205.265625 183.003906 199.613281 C 180.8125 195.546875 180.128906 190.644531 179.9375 186.09375 C 179.757812 181.828125 181.070312 177.914062 183.433594 174.339844 C 185.796875 170.769531 190.109375 167.90625 193.640625 165.558594 C 197.433594 163.023438 201.550781 161.199219 206.1875 161.414062 C 206.457031 161.425781 206.457031 161.007812 206.1875 160.988281 C 198.449219 160.617188 191.617188 165.914062 186.097656 170.796875 C 183.316406 173.257812 181.640625 176.332031 180.28125 179.765625 C 178.902344 183.230469 179.433594 187.253906 179.957031 190.863281 C 180.519531 194.707031 181.601562 198.675781 183.953125 201.832031 C 186 204.570312 188.78125 206.71875 191.640625 208.550781 C 196.386719 211.59375 204.144531 216.316406 209.722656 212.800781 C 209.804688 212.746094 209.835938 212.667969 209.808594 212.570312 C 209.78125 212.472656 209.71875 212.417969 209.617188 212.410156 C 202.351562 212.3125 195.867188 209.308594 191.664062 203.285156 C 188.890625 199.28125 187.234375 194.859375 186.6875 190.019531 C 185.308594 177.164062 193.972656 164.097656 206.9375 161.902344 C 207.199219 161.855469 207.085938 161.453125 206.824219 161.5 Z M 206.824219 161.503906 "/><g clip-rule="nonzero" clip-path="url(#clip1)"><path style=" stroke:none;fill-rule:nonzero;fill:rgb(15.289307%,15.289307%,20.779419%);fill-opacity:1;" d="M 261.871094 95.542969 C 261.574219 95.140625 261.203125 94.828125 260.753906 94.605469 C 260.308594 94.378906 259.835938 94.265625 259.339844 94.269531 L 183.660156 94.269531 C 183.121094 94.269531 182.589844 94.316406 182.058594 94.402344 C 181.527344 94.492188 181.007812 94.621094 180.5 94.792969 C 179.988281 94.964844 179.496094 95.175781 179.019531 95.425781 C 178.542969 95.675781 178.089844 95.964844 177.660156 96.285156 C 177.230469 96.609375 176.832031 96.964844 176.457031 97.351562 C 176.085938 97.742188 175.746094 98.15625 175.4375 98.597656 C 175.132812 99.039062 174.863281 99.503906 174.632812 99.988281 C 174.398438 100.476562 174.207031 100.976562 174.054688 101.492188 L 161.605469 144.269531 L 161.582031 144.375 C 161.546875 144.523438 158.140625 159.3125 140.679688 159.3125 C 125.140625 159.3125 112.5 171.964844 112.5 187.523438 C 112.5 203.078125 125.140625 215.734375 140.679688 215.734375 C 153.964844 215.734375 165.136719 206.476562 168.085938 194.0625 L 168.097656 194.027344 L 191.835938 113.816406 C 191.917969 113.542969 192.039062 113.292969 192.203125 113.058594 C 192.367188 112.828125 192.5625 112.628906 192.789062 112.457031 C 193.015625 112.289062 193.261719 112.15625 193.53125 112.066406 C 193.800781 111.976562 194.078125 111.933594 194.359375 111.929688 L 233.460938 111.929688 C 233.667969 111.933594 233.867188 111.957031 234.066406 112.003906 C 234.265625 112.050781 234.453125 112.121094 234.636719 112.214844 C 234.820312 112.304688 234.988281 112.417969 235.144531 112.546875 C 235.300781 112.679688 235.4375 112.824219 235.5625 112.988281 C 235.683594 113.152344 235.785156 113.328125 235.867188 113.515625 C 235.949219 113.703125 236.007812 113.894531 236.042969 114.097656 C 236.078125 114.296875 236.09375 114.5 236.082031 114.703125 C 236.070312 114.90625 236.039062 115.109375 235.980469 115.304688 L 227.542969 144.316406 C 227.378906 144.929688 223.414062 159.3125 206.625 159.3125 C 191.085938 159.3125 178.449219 171.964844 178.449219 187.523438 C 178.449219 203.078125 191.085938 215.734375 206.625 215.734375 C 219.925781 215.734375 231.105469 206.457031 234.042969 194.023438 L 262.367188 98.332031 C 262.507812 97.855469 262.535156 97.371094 262.449219 96.878906 C 262.363281 96.386719 262.167969 95.941406 261.871094 95.542969 Z M 164.863281 193.941406 C 164.664062 194.6875 164.433594 195.421875 164.171875 196.144531 C 163.90625 196.867188 163.609375 197.578125 163.277344 198.273438 C 162.949219 198.96875 162.589844 199.648438 162.195312 200.308594 C 161.804688 200.972656 161.382812 201.613281 160.929688 202.238281 C 160.480469 202.863281 160 203.464844 159.492188 204.042969 C 158.988281 204.621094 158.453125 205.175781 157.894531 205.707031 C 157.339844 206.234375 156.757812 206.738281 156.152344 207.214844 C 155.546875 207.691406 154.921875 208.140625 154.277344 208.558594 C 153.632812 208.976562 152.96875 209.363281 152.289062 209.722656 C 151.605469 210.078125 150.910156 210.40625 150.199219 210.699219 C 149.488281 210.992188 148.765625 211.25 148.03125 211.476562 C 147.292969 211.703125 146.550781 211.894531 145.796875 212.054688 C 145.046875 212.210938 144.285156 212.332031 143.523438 212.421875 C 142.757812 212.507812 141.992188 212.5625 141.222656 212.578125 C 140.453125 212.59375 139.6875 212.574219 138.917969 212.523438 C 138.152344 212.46875 137.390625 212.378906 136.628906 212.253906 C 135.871094 212.128906 135.121094 211.96875 134.375 211.777344 C 133.628906 211.582031 132.898438 211.355469 132.171875 211.09375 C 131.449219 210.832031 130.742188 210.535156 130.042969 210.207031 C 129.347656 209.882812 128.667969 209.523438 128.003906 209.132812 C 127.34375 208.742188 126.699219 208.324219 126.074219 207.875 C 125.449219 207.425781 124.847656 206.945312 124.265625 206.441406 C 123.6875 205.9375 123.128906 205.40625 122.597656 204.847656 C 122.066406 204.292969 121.5625 203.714844 121.082031 203.109375 C 120.605469 202.507812 120.15625 201.882812 119.734375 201.238281 C 119.3125 200.59375 118.925781 199.929688 118.5625 199.25 C 118.203125 198.570312 117.875 197.875 117.582031 197.164062 C 117.285156 196.453125 117.023438 195.730469 116.792969 194.996094 C 116.566406 194.257812 116.371094 193.515625 116.210938 192.761719 C 116.050781 192.007812 115.921875 191.25 115.832031 190.484375 C 115.742188 189.722656 115.6875 188.953125 115.667969 188.183594 C 115.648438 187.414062 115.664062 186.644531 115.714844 185.875 C 115.765625 185.109375 115.851562 184.34375 115.972656 183.582031 C 116.09375 182.824219 116.25 182.070312 116.441406 181.324219 C 116.628906 180.578125 116.855469 179.84375 117.113281 179.117188 C 117.371094 178.390625 117.664062 177.679688 117.988281 176.980469 C 118.3125 176.285156 118.667969 175.601562 119.054688 174.9375 C 119.441406 174.269531 119.855469 173.625 120.300781 172.996094 C 120.75 172.371094 121.222656 171.765625 121.726562 171.179688 C 122.226562 170.597656 122.753906 170.039062 123.308594 169.503906 C 123.863281 168.96875 124.4375 168.460938 125.039062 167.980469 C 125.640625 167.5 126.261719 167.046875 126.902344 166.621094 C 127.546875 166.199219 128.207031 165.804688 128.882812 165.441406 C 129.5625 165.078125 130.253906 164.75 130.964844 164.449219 C 131.671875 164.148438 132.394531 163.882812 133.128906 163.652344 C 133.859375 163.417969 134.601562 163.222656 135.355469 163.058594 C 136.105469 162.894531 136.863281 162.765625 137.625 162.671875 C 138.390625 162.578125 139.15625 162.519531 139.925781 162.496094 C 140.175781 162.496094 140.425781 162.484375 140.679688 162.484375 C 141.632812 162.484375 142.585938 162.539062 143.53125 162.648438 C 144.480469 162.757812 145.421875 162.921875 146.351562 163.140625 C 147.28125 163.355469 148.195312 163.625 149.09375 163.949219 C 149.992188 164.269531 150.871094 164.640625 151.726562 165.066406 C 152.582031 165.488281 153.410156 165.957031 154.214844 166.476562 C 155.015625 166.992188 155.789062 167.554688 156.527344 168.160156 C 157.265625 168.765625 157.964844 169.410156 158.632812 170.097656 C 159.296875 170.785156 159.917969 171.503906 160.5 172.261719 C 161.085938 173.019531 161.621094 173.808594 162.113281 174.628906 C 162.605469 175.445312 163.050781 176.292969 163.445312 177.160156 C 163.839844 178.03125 164.1875 178.921875 164.480469 179.828125 C 164.773438 180.738281 165.015625 181.664062 165.207031 182.601562 C 165.394531 183.535156 165.527344 184.480469 165.609375 185.433594 C 165.691406 186.386719 165.714844 187.339844 165.6875 188.296875 C 165.660156 189.25 165.578125 190.203125 165.441406 191.148438 C 165.304688 192.09375 165.113281 193.03125 164.871094 193.953125 Z M 230.808594 193.941406 C 230.613281 194.6875 230.382812 195.421875 230.117188 196.144531 C 229.851562 196.867188 229.554688 197.578125 229.226562 198.273438 C 228.894531 198.96875 228.535156 199.648438 228.140625 200.308594 C 227.75 200.972656 227.328125 201.613281 226.875 202.238281 C 226.425781 202.859375 225.945312 203.460938 225.4375 204.039062 C 224.929688 204.621094 224.398438 205.175781 223.839844 205.703125 C 223.28125 206.234375 222.699219 206.738281 222.097656 207.214844 C 221.492188 207.691406 220.867188 208.136719 220.222656 208.554688 C 219.574219 208.972656 218.910156 209.363281 218.230469 209.71875 C 217.550781 210.074219 216.851562 210.402344 216.140625 210.695312 C 215.429688 210.988281 214.707031 211.246094 213.972656 211.472656 C 213.238281 211.699219 212.492188 211.890625 211.738281 212.046875 C 210.988281 212.207031 210.230469 212.328125 209.464844 212.414062 C 208.699219 212.503906 207.933594 212.554688 207.164062 212.570312 C 206.394531 212.585938 205.628906 212.570312 204.859375 212.515625 C 204.09375 212.460938 203.332031 212.371094 202.570312 212.246094 C 201.8125 212.121094 201.0625 211.960938 200.316406 211.769531 C 199.574219 211.574219 198.839844 211.34375 198.117188 211.082031 C 197.390625 210.820312 196.683594 210.527344 195.984375 210.199219 C 195.289062 209.871094 194.609375 209.511719 193.949219 209.125 C 193.285156 208.734375 192.640625 208.3125 192.015625 207.863281 C 191.390625 207.414062 190.789062 206.9375 190.210938 206.429688 C 189.628906 205.925781 189.074219 205.394531 188.542969 204.839844 C 188.007812 204.28125 187.503906 203.703125 187.027344 203.097656 C 186.546875 202.496094 186.097656 201.871094 185.679688 201.226562 C 185.257812 200.582031 184.867188 199.917969 184.507812 199.238281 C 184.148438 198.558594 183.820312 197.863281 183.523438 197.152344 C 183.230469 196.441406 182.96875 195.71875 182.738281 194.984375 C 182.507812 194.246094 182.316406 193.503906 182.15625 192.75 C 181.996094 191.996094 181.867188 191.238281 181.777344 190.472656 C 181.6875 189.707031 181.632812 188.941406 181.613281 188.171875 C 181.59375 187.402344 181.609375 186.632812 181.660156 185.863281 C 181.710938 185.097656 181.796875 184.332031 181.917969 183.570312 C 182.039062 182.8125 182.195312 182.058594 182.386719 181.3125 C 182.578125 180.566406 182.800781 179.828125 183.058594 179.105469 C 183.320312 178.378906 183.609375 177.667969 183.933594 176.96875 C 184.257812 176.269531 184.613281 175.589844 185 174.921875 C 185.386719 174.257812 185.804688 173.613281 186.25 172.984375 C 186.699219 172.355469 187.171875 171.753906 187.671875 171.167969 C 188.175781 170.585938 188.703125 170.027344 189.257812 169.492188 C 189.8125 168.957031 190.386719 168.449219 190.988281 167.96875 C 191.589844 167.488281 192.210938 167.035156 192.851562 166.609375 C 193.496094 166.1875 194.15625 165.792969 194.832031 165.429688 C 195.511719 165.066406 196.203125 164.738281 196.914062 164.4375 C 197.621094 164.140625 198.34375 163.875 199.078125 163.640625 C 199.808594 163.410156 200.550781 163.210938 201.304688 163.046875 C 202.054688 162.882812 202.8125 162.753906 203.578125 162.660156 C 204.339844 162.566406 205.105469 162.507812 205.875 162.484375 C 206.125 162.484375 206.378906 162.472656 206.632812 162.472656 C 207.585938 162.472656 208.539062 162.527344 209.488281 162.636719 C 210.4375 162.746094 211.375 162.910156 212.304688 163.125 C 213.238281 163.34375 214.152344 163.613281 215.050781 163.933594 C 215.949219 164.253906 216.828125 164.628906 217.683594 165.050781 C 218.542969 165.472656 219.371094 165.941406 220.175781 166.460938 C 220.976562 166.976562 221.75 167.539062 222.488281 168.144531 C 223.226562 168.75 223.929688 169.394531 224.59375 170.082031 C 225.257812 170.769531 225.882812 171.492188 226.464844 172.25 C 227.046875 173.007812 227.585938 173.796875 228.078125 174.613281 C 228.570312 175.433594 229.011719 176.277344 229.410156 177.148438 C 229.804688 178.019531 230.148438 178.910156 230.445312 179.820312 C 230.738281 180.730469 230.980469 181.652344 231.167969 182.589844 C 231.355469 183.527344 231.488281 184.472656 231.570312 185.425781 C 231.648438 186.378906 231.675781 187.332031 231.648438 188.289062 C 231.617188 189.242188 231.535156 190.195312 231.398438 191.140625 C 231.261719 192.085938 231.070312 193.023438 230.824219 193.949219 Z M 230.808594 193.941406 "/></g><path style=" stroke:none;fill-rule:nonzero;fill:rgb(29.019165%,40.388489%,57.249451%);fill-opacity:1;" d="M 143.46875 173.875 C 140.28125 177.667969 136.378906 180.457031 131.757812 182.234375 C 130.609375 182.6875 129.246094 183.085938 128.03125 183.136719 C 127.699219 183.15625 126.8125 183.371094 127.070312 182.550781 L 127.597656 181.558594 C 127.980469 180.832031 128.367188 180.109375 128.816406 179.421875 C 129.582031 178.25 130.507812 177.226562 131.589844 176.34375 C 132.671875 175.457031 133.863281 174.757812 135.160156 174.242188 C 137.738281 173.21875 138.785156 173.214844 143.136719 173.46875 C 143.136719 173.476562 143.695312 173.597656 143.46875 173.875 Z M 143.46875 173.875 "/><path style=" stroke:none;fill-rule:nonzero;fill:rgb(29.019165%,40.388489%,57.249451%);fill-opacity:1;" d="M 143.320312 173.734375 C 141.171875 176.195312 138.742188 178.34375 135.914062 180.003906 C 134.425781 180.882812 132.867188 181.617188 131.246094 182.210938 C 129.828125 182.71875 127.160156 183.910156 127.769531 181.679688 C 128.574219 178.738281 131.882812 176 134.492188 174.765625 C 135.84375 174.105469 137.269531 173.714844 138.769531 173.582031 C 139.292969 173.542969 143.277344 173.535156 143.25 173.886719 C 143.230469 174.15625 143.648438 174.152344 143.675781 173.886719 L 143.691406 173.660156 C 143.691406 173.578125 143.65625 173.519531 143.585938 173.476562 C 142.5 172.800781 140.292969 173.089844 139.066406 173.144531 C 137.683594 173.21875 136.351562 173.527344 135.074219 174.0625 C 133.089844 174.867188 131.375 176.058594 129.9375 177.644531 C 128.980469 178.707031 126.953125 181.019531 126.875 182.484375 C 126.753906 184.757812 131.855469 182.445312 132.621094 182.121094 C 136.914062 180.304688 140.554688 177.53125 143.613281 174.035156 C 143.792969 173.820312 143.5 173.523438 143.320312 173.734375 Z M 143.320312 173.734375 "/><path style=" stroke:none;fill-rule:nonzero;fill:rgb(29.019165%,40.388489%,57.249451%);fill-opacity:1;" d="M 148.507812 175.761719 C 145.605469 179.898438 136.164062 186.53125 126.90625 185.890625 C 126.75 185.875 126.601562 185.90625 126.464844 185.984375 C 126.304688 186.136719 126.230469 186.324219 126.234375 186.542969 C 126.125 187.519531 126.078125 188.667969 126.832031 189.292969 C 127.164062 189.539062 127.535156 189.699219 127.941406 189.777344 C 129.226562 190.082031 130.527344 190.308594 131.839844 190.453125 C 135.710938 190.953125 139.691406 191.363281 143.480469 190.453125 C 145.324219 190.007812 147.046875 189.28125 148.648438 188.273438 C 150.253906 187.265625 151.65625 186.027344 152.855469 184.558594 C 153.207031 184.167969 153.46875 183.722656 153.636719 183.226562 C 154 181.953125 153.132812 180.613281 152.363281 179.535156 C 151.433594 178.238281 150.320312 176.722656 148.617188 175.773438 "/><path style=" stroke:none;fill-rule:nonzero;fill:rgb(29.019165%,40.388489%,57.249451%);fill-opacity:1;" d="M 148.324219 175.648438 C 144.03125 181.460938 135.855469 185.523438 128.699219 185.710938 C 126.730469 185.761719 125.515625 185.460938 126 188.046875 C 126.425781 190.285156 128.984375 190.253906 130.832031 190.527344 C 137.699219 191.546875 144.894531 191.816406 150.566406 187.15625 C 152.191406 185.820312 154.425781 183.96875 153.78125 181.632812 C 153.136719 179.292969 150.722656 176.851562 148.730469 175.59375 C 148.503906 175.449219 148.292969 175.804688 148.519531 175.957031 C 151.082031 177.574219 154.625 181.351562 152.648438 184.457031 C 151.046875 186.960938 147.820312 188.824219 145.097656 189.769531 C 142.039062 190.832031 138.765625 190.90625 135.566406 190.652344 C 134.007812 190.527344 132.449219 190.335938 130.898438 190.109375 C 130.21875 190.011719 129.144531 189.992188 128.496094 189.683594 C 127.171875 189.066406 125.226562 186.972656 127.816406 186.136719 C 128.574219 185.894531 129.742188 186.09375 130.554688 185.996094 C 131.742188 185.855469 132.910156 185.621094 134.0625 185.304688 C 136.203125 184.699219 138.25 183.867188 140.203125 182.796875 C 143.394531 181.074219 146.523438 178.808594 148.691406 175.863281 C 148.851562 175.652344 148.480469 175.441406 148.328125 175.652344 Z M 148.324219 175.648438 "/><path style=" stroke:none;fill-rule:nonzero;fill:rgb(29.019165%,40.388489%,57.249451%);fill-opacity:1;" d="M 153.9375 192.320312 C 153.042969 194.539062 151.90625 195.96875 150.847656 197.292969 C 149.746094 198.671875 148.0625 199.632812 146.390625 200.453125 C 142.328125 202.476562 138.839844 201.703125 135.632812 200.667969 C 132.429688 199.628906 129.082031 196.1875 127.625 193.144531 C 133.660156 194.589844 145.113281 196.34375 153.34375 190.523438 C 153.460938 190.441406 153.589844 190.414062 153.726562 190.433594 C 154.152344 190.546875 154.171875 191.421875 153.9375 192.328125 "/><path style=" stroke:none;fill-rule:nonzero;fill:rgb(29.019165%,40.388489%,57.249451%);fill-opacity:1;" d="M 153.757812 192.222656 C 151.15625 198.140625 145.480469 202.507812 138.742188 201.277344 C 135.824219 200.734375 133.296875 199.550781 131.132812 197.496094 C 130.230469 196.648438 128.730469 195.324219 128.398438 194.097656 C 128.199219 193.363281 127.972656 193.78125 128.382812 193.527344 C 128.519531 193.445312 129.75 193.820312 129.84375 193.835938 C 133.597656 194.578125 137.449219 194.957031 141.269531 194.6875 C 143.339844 194.558594 145.371094 194.203125 147.359375 193.625 C 148.308594 193.339844 149.234375 192.992188 150.136719 192.585938 C 150.636719 192.359375 154.109375 190.082031 153.734375 192.273438 C 153.691406 192.535156 154.097656 192.652344 154.140625 192.382812 C 154.292969 191.5 154.460938 190.949219 153.882812 190.285156 C 153.820312 190.222656 153.75 190.207031 153.667969 190.230469 C 152.957031 190.394531 152.421875 190.898438 151.796875 191.265625 C 150.476562 192.027344 149.089844 192.636719 147.636719 193.09375 C 145.167969 193.855469 142.640625 194.269531 140.058594 194.335938 C 135.886719 194.484375 131.730469 193.890625 127.679688 192.941406 C 127.589844 192.917969 127.515625 192.941406 127.457031 193.015625 C 127.402344 193.089844 127.394531 193.167969 127.441406 193.25 C 130.085938 198.328125 134.90625 201.699219 140.691406 201.917969 C 146.84375 202.148438 151.753906 197.796875 154.109375 192.433594 C 154.21875 192.191406 153.855469 191.976562 153.75 192.222656 Z M 153.757812 192.222656 "/><path style=" stroke:none;fill-rule:nonzero;fill:rgb(63.529968%,73.329163%,83.139038%);fill-opacity:1;" d="M 150.945312 181.769531 C 150.929688 181.644531 150.859375 181.585938 150.734375 181.585938 C 150.625 181.511719 150.53125 181.53125 150.464844 181.644531 C 147.871094 185.78125 142.234375 187.785156 137.75 188.960938 C 137.539062 189.015625 137.578125 189.375 137.800781 189.347656 C 141.589844 188.867188 151.675781 187.652344 150.945312 181.769531 Z M 150.945312 181.769531 "/><path style=" stroke:none;fill-rule:nonzero;fill:rgb(63.529968%,73.329163%,83.139038%);fill-opacity:1;" d="M 150.4375 193.628906 C 149.769531 194.382812 149.054688 195.089844 148.296875 195.753906 L 144.265625 198.1875 C 144.117188 198.246094 143.972656 198.304688 143.824219 198.355469 C 143.679688 198.410156 143.527344 198.460938 143.371094 198.503906 C 143.34375 198.511719 143.320312 198.527344 143.296875 198.546875 C 142.210938 198.914062 141.09375 199.117188 139.945312 199.15625 C 139.828125 199.167969 139.769531 199.234375 139.769531 199.351562 C 139.769531 199.46875 139.828125 199.535156 139.945312 199.546875 C 144.363281 199.667969 149.082031 198.339844 150.769531 193.824219 C 150.835938 193.636719 150.566406 193.496094 150.4375 193.628906 Z M 150.4375 193.628906 "/><path style=" stroke:none;fill-rule:nonzero;fill:rgb(63.529968%,73.329163%,83.139038%);fill-opacity:1;" d="M 140.9375 174.632812 C 140.972656 174.566406 140.972656 174.503906 140.9375 174.4375 C 140.898438 174.371094 140.84375 174.339844 140.765625 174.339844 C 140.351562 174.296875 139.945312 174.34375 139.550781 174.472656 C 139.484375 174.449219 139.425781 174.46875 139.382812 174.523438 C 139.328125 174.546875 139.292969 174.582031 139.277344 174.636719 C 137.386719 176.769531 135.199219 178.527344 132.714844 179.917969 C 132.488281 180.046875 132.6875 180.355469 132.910156 180.257812 C 135.964844 178.914062 139.003906 177.46875 140.9375 174.632812 Z M 140.9375 174.632812 "/><path style=" stroke:none;fill-rule:nonzero;fill:rgb(29.019165%,40.388489%,57.249451%);fill-opacity:1;" d="M 209.414062 173.875 C 206.230469 177.671875 202.324219 180.457031 197.703125 182.234375 C 196.554688 182.6875 195.195312 183.085938 193.976562 183.136719 C 193.648438 183.15625 192.757812 183.371094 193.015625 182.550781 L 193.546875 181.558594 C 193.929688 180.832031 194.3125 180.109375 194.761719 179.421875 C 195.53125 178.25 196.457031 177.226562 197.539062 176.34375 C 198.621094 175.457031 199.8125 174.757812 201.109375 174.242188 C 203.683594 173.21875 204.730469 173.214844 209.082031 173.46875 C 209.082031 173.476562 209.648438 173.597656 209.414062 173.875 Z M 209.414062 173.875 "/><path style=" stroke:none;fill-rule:nonzero;fill:rgb(29.019165%,40.388489%,57.249451%);fill-opacity:1;" d="M 209.269531 173.734375 C 207.121094 176.195312 204.691406 178.34375 201.867188 180.003906 C 200.378906 180.882812 198.820312 181.617188 197.195312 182.210938 C 195.78125 182.71875 193.113281 183.910156 193.722656 181.679688 C 194.523438 178.738281 197.832031 176 200.449219 174.765625 C 201.800781 174.105469 203.222656 173.710938 204.71875 173.582031 C 205.25 173.542969 209.230469 173.535156 209.203125 173.886719 C 209.179688 174.15625 209.601562 174.152344 209.625 173.886719 L 209.644531 173.660156 C 209.644531 173.578125 209.609375 173.519531 209.542969 173.476562 C 208.449219 172.800781 206.246094 173.089844 205.015625 173.144531 C 203.632812 173.21875 202.304688 173.527344 201.027344 174.0625 C 199.042969 174.867188 197.332031 176.058594 195.890625 177.644531 C 194.933594 178.707031 192.90625 181.019531 192.828125 182.484375 C 192.707031 184.757812 197.808594 182.445312 198.574219 182.121094 C 202.867188 180.304688 206.507812 177.53125 209.566406 174.035156 C 209.742188 173.820312 209.445312 173.523438 209.269531 173.734375 Z M 209.269531 173.734375 "/><path style=" stroke:none;fill-rule:nonzero;fill:rgb(29.019165%,40.388489%,57.249451%);fill-opacity:1;" d="M 214.453125 175.761719 C 211.542969 179.90625 202.109375 186.53125 192.855469 185.890625 C 192.761719 185.871094 192.671875 185.875 192.582031 185.902344 C 192.492188 185.925781 192.414062 185.972656 192.34375 186.039062 C 192.277344 186.105469 192.230469 186.183594 192.199219 186.269531 C 192.171875 186.359375 192.164062 186.453125 192.179688 186.542969 C 192.070312 187.519531 192.027344 188.667969 192.777344 189.292969 C 193.113281 189.539062 193.484375 189.699219 193.890625 189.777344 C 195.175781 190.082031 196.472656 190.308594 197.785156 190.453125 C 201.65625 190.953125 205.636719 191.363281 209.425781 190.453125 C 211.269531 190.007812 212.992188 189.28125 214.597656 188.273438 C 216.199219 187.261719 217.601562 186.023438 218.804688 184.558594 C 219.152344 184.167969 219.414062 183.722656 219.582031 183.226562 C 219.945312 181.953125 219.082031 180.613281 218.308594 179.535156 C 217.375 178.238281 216.261719 176.722656 214.566406 175.773438 "/><path style=" stroke:none;fill-rule:nonzero;fill:rgb(29.019165%,40.388489%,57.249451%);fill-opacity:1;" d="M 214.273438 175.648438 C 209.980469 181.460938 201.800781 185.523438 194.644531 185.710938 C 192.675781 185.761719 191.464844 185.460938 191.945312 188.046875 C 192.371094 190.285156 194.929688 190.253906 196.777344 190.527344 C 203.648438 191.546875 210.84375 191.816406 216.511719 187.15625 C 218.132812 185.820312 220.371094 183.96875 219.722656 181.632812 C 219.078125 179.292969 216.667969 176.851562 214.675781 175.59375 C 214.449219 175.449219 214.234375 175.804688 214.464844 175.957031 C 217.023438 177.574219 220.574219 181.351562 218.59375 184.457031 C 216.992188 186.960938 213.765625 188.824219 211.042969 189.769531 C 207.984375 190.832031 204.710938 190.90625 201.511719 190.652344 C 199.949219 190.527344 198.390625 190.335938 196.84375 190.109375 C 196.160156 190.011719 195.085938 189.992188 194.4375 189.683594 C 193.117188 189.066406 191.167969 186.972656 193.757812 186.136719 C 194.519531 185.894531 195.683594 186.09375 196.496094 185.996094 C 197.683594 185.855469 198.851562 185.621094 200.003906 185.304688 C 202.148438 184.699219 204.195312 183.867188 206.144531 182.796875 C 209.328125 181.074219 212.46875 178.808594 214.636719 175.863281 C 214.796875 175.652344 214.433594 175.441406 214.273438 175.652344 Z M 214.273438 175.648438 "/><path style=" stroke:none;fill-rule:nonzero;fill:rgb(29.019165%,40.388489%,57.249451%);fill-opacity:1;" d="M 219.878906 192.320312 C 218.984375 194.539062 217.847656 195.96875 216.789062 197.292969 C 215.691406 198.671875 214.003906 199.632812 212.332031 200.453125 C 208.269531 202.476562 204.78125 201.703125 201.578125 200.667969 C 198.375 199.628906 195.023438 196.1875 193.566406 193.144531 C 199.605469 194.589844 211.054688 196.34375 219.285156 190.523438 C 219.402344 190.441406 219.53125 190.414062 219.671875 190.433594 C 220.09375 190.546875 220.113281 191.421875 219.882812 192.328125 "/><path style=" stroke:none;fill-rule:nonzero;fill:rgb(29.019165%,40.388489%,57.249451%);fill-opacity:1;" d="M 219.703125 192.222656 C 217.101562 198.140625 211.414062 202.507812 204.691406 201.277344 C 201.769531 200.742188 199.25 199.558594 197.078125 197.503906 C 196.175781 196.65625 194.679688 195.332031 194.34375 194.105469 C 194.144531 193.371094 193.917969 193.789062 194.332031 193.535156 C 194.464844 193.453125 195.695312 193.828125 195.792969 193.84375 C 199.542969 194.582031 203.394531 194.964844 207.21875 194.691406 C 209.289062 194.5625 211.316406 194.210938 213.308594 193.628906 C 214.257812 193.347656 215.183594 193 216.085938 192.589844 C 216.585938 192.367188 220.058594 190.085938 219.683594 192.28125 C 219.636719 192.542969 220.042969 192.65625 220.085938 192.390625 C 220.238281 191.507812 220.40625 190.957031 219.828125 190.289062 C 219.769531 190.230469 219.699219 190.210938 219.617188 190.238281 C 218.90625 190.402344 218.371094 190.90625 217.742188 191.273438 C 216.425781 192.035156 215.039062 192.644531 213.585938 193.097656 C 211.117188 193.859375 208.589844 194.273438 206.007812 194.34375 C 201.839844 194.488281 197.679688 193.898438 193.628906 192.945312 C 193.539062 192.925781 193.464844 192.949219 193.410156 193.023438 C 193.351562 193.097656 193.347656 193.175781 193.390625 193.257812 C 196.03125 198.335938 200.855469 201.703125 206.636719 201.925781 C 212.792969 202.15625 217.703125 197.804688 220.058594 192.441406 C 220.167969 192.195312 219.804688 191.980469 219.699219 192.226562 Z M 219.703125 192.222656 "/><path style=" stroke:none;fill-rule:nonzero;fill:rgb(63.529968%,73.329163%,83.139038%);fill-opacity:1;" d="M 216.894531 181.769531 C 216.875 181.644531 216.804688 181.585938 216.679688 181.585938 C 216.570312 181.511719 216.480469 181.53125 216.410156 181.644531 C 213.816406 185.78125 208.179688 187.785156 203.699219 188.960938 C 203.484375 189.015625 203.527344 189.375 203.75 189.347656 C 207.535156 188.867188 217.621094 187.652344 216.894531 181.769531 Z M 216.894531 181.769531 "/><path style=" stroke:none;fill-rule:nonzero;fill:rgb(63.529968%,73.329163%,83.139038%);fill-opacity:1;" d="M 216.386719 193.628906 C 215.714844 194.382812 215 195.089844 214.246094 195.753906 L 210.210938 198.1875 C 210.066406 198.246094 209.917969 198.304688 209.773438 198.355469 C 209.625 198.410156 209.472656 198.460938 209.320312 198.503906 C 209.289062 198.511719 209.265625 198.527344 209.242188 198.546875 C 208.15625 198.914062 207.039062 199.117188 205.890625 199.15625 C 205.773438 199.167969 205.714844 199.234375 205.714844 199.351562 C 205.714844 199.46875 205.773438 199.535156 205.890625 199.546875 C 210.308594 199.667969 215.03125 198.339844 216.714844 193.824219 C 216.742188 193.726562 216.710938 193.652344 216.625 193.601562 C 216.539062 193.550781 216.457031 193.558594 216.386719 193.628906 Z M 216.386719 193.628906 "/><path style=" stroke:none;fill-rule:nonzero;fill:rgb(63.529968%,73.329163%,83.139038%);fill-opacity:1;" d="M 206.890625 174.632812 C 206.925781 174.566406 206.925781 174.503906 206.890625 174.4375 C 206.851562 174.371094 206.796875 174.339844 206.722656 174.339844 C 206.308594 174.296875 205.902344 174.34375 205.503906 174.472656 C 205.4375 174.449219 205.378906 174.46875 205.335938 174.523438 C 205.285156 174.546875 205.25 174.582031 205.230469 174.636719 C 203.339844 176.769531 201.148438 178.53125 198.660156 179.917969 C 198.433594 180.046875 198.632812 180.355469 198.855469 180.257812 C 201.914062 178.914062 204.953125 177.46875 206.890625 174.632812 Z M 206.890625 174.632812 "/><g style="fill:rgb(29.019165%,40.388489%,57.249451%);fill-opacity:1;"><g transform="translate(55.166415, 274.609465)"><path style="stroke:none;" d="M 1.375 0 C 1.28125 0 1.195312 -0.03125 1.125 -0.09375 C 1.0625 -0.164062 1.03125 -0.25 1.03125 -0.34375 L 1.03125 -9.453125 C 1.03125 -9.554688 1.0625 -9.640625 1.125 -9.703125 C 1.195312 -9.765625 1.28125 -9.796875 1.375 -9.796875 L 4.90625 -9.796875 C 5.832031 -9.796875 6.609375 -9.648438 7.234375 -9.359375 C 7.859375 -9.066406 8.335938 -8.632812 8.671875 -8.0625 C 9.003906 -7.5 9.179688 -6.804688 9.203125 -5.984375 C 9.210938 -5.566406 9.21875 -5.203125 9.21875 -4.890625 C 9.21875 -4.585938 9.210938 -4.238281 9.203125 -3.84375 C 9.171875 -2.96875 8.992188 -2.242188 8.671875 -1.671875 C 8.359375 -1.109375 7.894531 -0.6875 7.28125 -0.40625 C 6.675781 -0.132812 5.90625 0 4.96875 0 Z M 3.265625 -1.8125 L 4.90625 -1.8125 C 5.363281 -1.8125 5.738281 -1.878906 6.03125 -2.015625 C 6.332031 -2.148438 6.554688 -2.367188 6.703125 -2.671875 C 6.859375 -2.984375 6.9375 -3.378906 6.9375 -3.859375 C 6.945312 -4.128906 6.953125 -4.367188 6.953125 -4.578125 C 6.960938 -4.796875 6.960938 -5.015625 6.953125 -5.234375 C 6.953125 -5.453125 6.945312 -5.691406 6.9375 -5.953125 C 6.925781 -6.648438 6.75 -7.160156 6.40625 -7.484375 C 6.0625 -7.816406 5.535156 -7.984375 4.828125 -7.984375 L 3.265625 -7.984375 Z M 3.265625 -1.8125 "/></g></g><g style="fill:rgb(29.019165%,40.388489%,57.249451%);fill-opacity:1;"><g transform="translate(72.786888, 274.609465)"><path style="stroke:none;" d="M 1.375 0 C 1.28125 0 1.195312 -0.03125 1.125 -0.09375 C 1.0625 -0.164062 1.03125 -0.25 1.03125 -0.34375 L 1.03125 -9.453125 C 1.03125 -9.554688 1.0625 -9.640625 1.125 -9.703125 C 1.195312 -9.765625 1.28125 -9.796875 1.375 -9.796875 L 2.984375 -9.796875 C 3.078125 -9.796875 3.15625 -9.765625 3.21875 -9.703125 C 3.28125 -9.640625 3.3125 -9.554688 3.3125 -9.453125 L 3.3125 -0.34375 C 3.3125 -0.25 3.28125 -0.164062 3.21875 -0.09375 C 3.15625 -0.03125 3.078125 0 2.984375 0 Z M 1.375 0 "/></g></g><g style="fill:rgb(29.019165%,40.388489%,57.249451%);fill-opacity:1;"><g transform="translate(84.838471, 274.609465)"><path style="stroke:none;" d="M 4.5625 0.140625 C 3.664062 0.140625 2.914062 0.0078125 2.3125 -0.25 C 1.707031 -0.507812 1.25 -0.847656 0.9375 -1.265625 C 0.632812 -1.691406 0.476562 -2.144531 0.46875 -2.625 C 0.46875 -2.707031 0.492188 -2.773438 0.546875 -2.828125 C 0.597656 -2.878906 0.664062 -2.90625 0.75 -2.90625 L 2.265625 -2.90625 C 2.390625 -2.90625 2.484375 -2.878906 2.546875 -2.828125 C 2.609375 -2.785156 2.671875 -2.726562 2.734375 -2.65625 C 2.796875 -2.488281 2.898438 -2.328125 3.046875 -2.171875 C 3.191406 -2.023438 3.382812 -1.90625 3.625 -1.8125 C 3.875 -1.726562 4.1875 -1.6875 4.5625 -1.6875 C 5.164062 -1.6875 5.617188 -1.78125 5.921875 -1.96875 C 6.234375 -2.164062 6.390625 -2.429688 6.390625 -2.765625 C 6.390625 -3.003906 6.304688 -3.195312 6.140625 -3.34375 C 5.972656 -3.488281 5.710938 -3.625 5.359375 -3.75 C 5.015625 -3.875 4.550781 -4 3.96875 -4.125 C 3.269531 -4.289062 2.675781 -4.488281 2.1875 -4.71875 C 1.695312 -4.957031 1.328125 -5.265625 1.078125 -5.640625 C 0.835938 -6.023438 0.71875 -6.5 0.71875 -7.0625 C 0.71875 -7.613281 0.867188 -8.109375 1.171875 -8.546875 C 1.484375 -8.984375 1.914062 -9.320312 2.46875 -9.5625 C 3.03125 -9.8125 3.703125 -9.9375 4.484375 -9.9375 C 5.109375 -9.9375 5.660156 -9.851562 6.140625 -9.6875 C 6.617188 -9.519531 7.019531 -9.300781 7.34375 -9.03125 C 7.664062 -8.757812 7.910156 -8.46875 8.078125 -8.15625 C 8.242188 -7.851562 8.332031 -7.554688 8.34375 -7.265625 C 8.34375 -7.179688 8.316406 -7.109375 8.265625 -7.046875 C 8.210938 -6.984375 8.140625 -6.953125 8.046875 -6.953125 L 6.484375 -6.953125 C 6.390625 -6.953125 6.304688 -6.96875 6.234375 -7 C 6.160156 -7.039062 6.09375 -7.109375 6.03125 -7.203125 C 5.988281 -7.460938 5.828125 -7.679688 5.546875 -7.859375 C 5.273438 -8.035156 4.921875 -8.125 4.484375 -8.125 C 4.023438 -8.125 3.660156 -8.039062 3.390625 -7.875 C 3.128906 -7.707031 3 -7.453125 3 -7.109375 C 3 -6.890625 3.066406 -6.703125 3.203125 -6.546875 C 3.347656 -6.390625 3.578125 -6.253906 3.890625 -6.140625 C 4.210938 -6.023438 4.644531 -5.898438 5.1875 -5.765625 C 5.988281 -5.597656 6.644531 -5.394531 7.15625 -5.15625 C 7.675781 -4.914062 8.054688 -4.613281 8.296875 -4.25 C 8.546875 -3.882812 8.671875 -3.421875 8.671875 -2.859375 C 8.671875 -2.234375 8.492188 -1.695312 8.140625 -1.25 C 7.796875 -0.800781 7.316406 -0.457031 6.703125 -0.21875 C 6.085938 0.0195312 5.375 0.140625 4.5625 0.140625 Z M 4.5625 0.140625 "/></g></g><g style="fill:rgb(29.019165%,40.388489%,57.249451%);fill-opacity:1;"><g transform="translate(101.661394, 274.609465)"><path style="stroke:none;" d="M 4.921875 0.140625 C 4.054688 0.140625 3.316406 -0.00390625 2.703125 -0.296875 C 2.085938 -0.585938 1.609375 -1.015625 1.265625 -1.578125 C 0.929688 -2.148438 0.75 -2.84375 0.71875 -3.65625 C 0.707031 -4.039062 0.703125 -4.453125 0.703125 -4.890625 C 0.703125 -5.328125 0.707031 -5.742188 0.71875 -6.140625 C 0.75 -6.941406 0.9375 -7.625 1.28125 -8.1875 C 1.625 -8.757812 2.101562 -9.191406 2.71875 -9.484375 C 3.332031 -9.785156 4.066406 -9.9375 4.921875 -9.9375 C 5.554688 -9.9375 6.128906 -9.859375 6.640625 -9.703125 C 7.148438 -9.546875 7.59375 -9.316406 7.96875 -9.015625 C 8.34375 -8.710938 8.632812 -8.359375 8.84375 -7.953125 C 9.050781 -7.554688 9.160156 -7.113281 9.171875 -6.625 C 9.179688 -6.539062 9.15625 -6.46875 9.09375 -6.40625 C 9.03125 -6.351562 8.957031 -6.328125 8.875 -6.328125 L 7.265625 -6.328125 C 7.148438 -6.328125 7.0625 -6.351562 7 -6.40625 C 6.9375 -6.457031 6.882812 -6.546875 6.84375 -6.671875 C 6.707031 -7.234375 6.472656 -7.613281 6.140625 -7.8125 C 5.816406 -8.019531 5.410156 -8.125 4.921875 -8.125 C 4.359375 -8.125 3.90625 -7.960938 3.5625 -7.640625 C 3.226562 -7.328125 3.050781 -6.804688 3.03125 -6.078125 C 3 -5.304688 3 -4.519531 3.03125 -3.71875 C 3.050781 -2.988281 3.226562 -2.46875 3.5625 -2.15625 C 3.90625 -1.84375 4.359375 -1.6875 4.921875 -1.6875 C 5.410156 -1.6875 5.820312 -1.785156 6.15625 -1.984375 C 6.488281 -2.191406 6.71875 -2.570312 6.84375 -3.125 C 6.882812 -3.25 6.9375 -3.335938 7 -3.390625 C 7.0625 -3.441406 7.148438 -3.46875 7.265625 -3.46875 L 8.875 -3.46875 C 8.957031 -3.46875 9.03125 -3.4375 9.09375 -3.375 C 9.15625 -3.320312 9.179688 -3.253906 9.171875 -3.171875 C 9.160156 -2.679688 9.050781 -2.234375 8.84375 -1.828125 C 8.632812 -1.429688 8.34375 -1.082031 7.96875 -0.78125 C 7.59375 -0.488281 7.148438 -0.257812 6.640625 -0.09375 C 6.128906 0.0625 5.554688 0.140625 4.921875 0.140625 Z M 4.921875 0.140625 "/></g></g><g style="fill:rgb(29.019165%,40.388489%,57.249451%);fill-opacity:1;"><g transform="translate(119.057997, 274.609465)"><path style="stroke:none;" d="M 4.921875 0.140625 C 4.078125 0.140625 3.347656 0 2.734375 -0.28125 C 2.117188 -0.5625 1.632812 -0.984375 1.28125 -1.546875 C 0.9375 -2.109375 0.753906 -2.820312 0.734375 -3.6875 C 0.722656 -4.082031 0.71875 -4.476562 0.71875 -4.875 C 0.71875 -5.269531 0.722656 -5.675781 0.734375 -6.09375 C 0.753906 -6.925781 0.9375 -7.628906 1.28125 -8.203125 C 1.632812 -8.785156 2.125 -9.21875 2.75 -9.5 C 3.375 -9.789062 4.097656 -9.9375 4.921875 -9.9375 C 5.742188 -9.9375 6.460938 -9.789062 7.078125 -9.5 C 7.703125 -9.21875 8.191406 -8.785156 8.546875 -8.203125 C 8.910156 -7.628906 9.101562 -6.925781 9.125 -6.09375 C 9.144531 -5.675781 9.15625 -5.269531 9.15625 -4.875 C 9.15625 -4.476562 9.144531 -4.082031 9.125 -3.6875 C 9.101562 -2.820312 8.914062 -2.109375 8.5625 -1.546875 C 8.207031 -0.984375 7.722656 -0.5625 7.109375 -0.28125 C 6.492188 0 5.765625 0.140625 4.921875 0.140625 Z M 4.921875 -1.6875 C 5.460938 -1.6875 5.910156 -1.847656 6.265625 -2.171875 C 6.617188 -2.492188 6.800781 -3.019531 6.8125 -3.75 C 6.832031 -4.164062 6.84375 -4.550781 6.84375 -4.90625 C 6.84375 -5.269531 6.832031 -5.648438 6.8125 -6.046875 C 6.800781 -6.535156 6.710938 -6.929688 6.546875 -7.234375 C 6.378906 -7.546875 6.15625 -7.769531 5.875 -7.90625 C 5.601562 -8.050781 5.285156 -8.125 4.921875 -8.125 C 4.566406 -8.125 4.25 -8.050781 3.96875 -7.90625 C 3.695312 -7.769531 3.472656 -7.546875 3.296875 -7.234375 C 3.128906 -6.929688 3.039062 -6.535156 3.03125 -6.046875 C 3.019531 -5.648438 3.015625 -5.269531 3.015625 -4.90625 C 3.015625 -4.550781 3.019531 -4.164062 3.03125 -3.75 C 3.050781 -3.019531 3.234375 -2.492188 3.578125 -2.171875 C 3.929688 -1.847656 4.378906 -1.6875 4.921875 -1.6875 Z M 4.921875 -1.6875 "/></g></g><g style="fill:rgb(29.019165%,40.388489%,57.249451%);fill-opacity:1;"><g transform="translate(136.594517, 274.609465)"><path style="stroke:none;" d="M 1.375 0 C 1.28125 0 1.195312 -0.03125 1.125 -0.09375 C 1.0625 -0.164062 1.03125 -0.25 1.03125 -0.34375 L 1.03125 -9.453125 C 1.03125 -9.554688 1.0625 -9.640625 1.125 -9.703125 C 1.195312 -9.765625 1.28125 -9.796875 1.375 -9.796875 L 5.09375 -9.796875 C 6.257812 -9.796875 7.175781 -9.523438 7.84375 -8.984375 C 8.519531 -8.453125 8.859375 -7.679688 8.859375 -6.671875 C 8.859375 -5.992188 8.691406 -5.425781 8.359375 -4.96875 C 8.035156 -4.507812 7.601562 -4.171875 7.0625 -3.953125 L 9.046875 -0.453125 C 9.078125 -0.390625 9.09375 -0.335938 9.09375 -0.296875 C 9.09375 -0.222656 9.0625 -0.15625 9 -0.09375 C 8.9375 -0.03125 8.867188 0 8.796875 0 L 7.21875 0 C 7.050781 0 6.925781 -0.0390625 6.84375 -0.125 C 6.757812 -0.21875 6.695312 -0.300781 6.65625 -0.375 L 4.953125 -3.578125 L 3.265625 -3.578125 L 3.265625 -0.34375 C 3.265625 -0.25 3.226562 -0.164062 3.15625 -0.09375 C 3.09375 -0.03125 3.007812 0 2.90625 0 Z M 3.265625 -5.359375 L 5.0625 -5.359375 C 5.570312 -5.359375 5.945312 -5.472656 6.1875 -5.703125 C 6.4375 -5.941406 6.5625 -6.269531 6.5625 -6.6875 C 6.5625 -7.113281 6.441406 -7.445312 6.203125 -7.6875 C 5.960938 -7.925781 5.582031 -8.046875 5.0625 -8.046875 L 3.265625 -8.046875 Z M 3.265625 -5.359375 "/></g></g><g style="fill:rgb(29.019165%,40.388489%,57.249451%);fill-opacity:1;"><g transform="translate(153.837208, 274.609465)"><path style="stroke:none;" d="M 1.375 0 C 1.28125 0 1.195312 -0.03125 1.125 -0.09375 C 1.0625 -0.164062 1.03125 -0.25 1.03125 -0.34375 L 1.03125 -9.453125 C 1.03125 -9.554688 1.0625 -9.640625 1.125 -9.703125 C 1.195312 -9.765625 1.28125 -9.796875 1.375 -9.796875 L 4.90625 -9.796875 C 5.832031 -9.796875 6.609375 -9.648438 7.234375 -9.359375 C 7.859375 -9.066406 8.335938 -8.632812 8.671875 -8.0625 C 9.003906 -7.5 9.179688 -6.804688 9.203125 -5.984375 C 9.210938 -5.566406 9.21875 -5.203125 9.21875 -4.890625 C 9.21875 -4.585938 9.210938 -4.238281 9.203125 -3.84375 C 9.171875 -2.96875 8.992188 -2.242188 8.671875 -1.671875 C 8.359375 -1.109375 7.894531 -0.6875 7.28125 -0.40625 C 6.675781 -0.132812 5.90625 0 4.96875 0 Z M 3.265625 -1.8125 L 4.90625 -1.8125 C 5.363281 -1.8125 5.738281 -1.878906 6.03125 -2.015625 C 6.332031 -2.148438 6.554688 -2.367188 6.703125 -2.671875 C 6.859375 -2.984375 6.9375 -3.378906 6.9375 -3.859375 C 6.945312 -4.128906 6.953125 -4.367188 6.953125 -4.578125 C 6.960938 -4.796875 6.960938 -5.015625 6.953125 -5.234375 C 6.953125 -5.453125 6.945312 -5.691406 6.9375 -5.953125 C 6.925781 -6.648438 6.75 -7.160156 6.40625 -7.484375 C 6.0625 -7.816406 5.535156 -7.984375 4.828125 -7.984375 L 3.265625 -7.984375 Z M 3.265625 -1.8125 "/></g></g><g style="fill:rgb(29.019165%,40.388489%,57.249451%);fill-opacity:1;"><g transform="translate(171.457675, 274.609465)"><path style="stroke:none;" d=""/></g></g><g style="fill:rgb(29.019165%,40.388489%,57.249451%);fill-opacity:1;"><g transform="translate(182.249957, 274.609465)"><path style="stroke:none;" d="M 1.390625 0 C 1.285156 0 1.195312 -0.03125 1.125 -0.09375 C 1.0625 -0.164062 1.03125 -0.25 1.03125 -0.34375 L 1.03125 -9.453125 C 1.03125 -9.554688 1.0625 -9.640625 1.125 -9.703125 C 1.195312 -9.765625 1.285156 -9.796875 1.390625 -9.796875 L 2.703125 -9.796875 C 2.835938 -9.796875 2.941406 -9.757812 3.015625 -9.6875 C 3.085938 -9.613281 3.132812 -9.554688 3.15625 -9.515625 L 5.734375 -4.78125 L 8.328125 -9.515625 C 8.347656 -9.554688 8.390625 -9.613281 8.453125 -9.6875 C 8.523438 -9.757812 8.632812 -9.796875 8.78125 -9.796875 L 10.078125 -9.796875 C 10.179688 -9.796875 10.265625 -9.765625 10.328125 -9.703125 C 10.398438 -9.640625 10.4375 -9.554688 10.4375 -9.453125 L 10.4375 -0.34375 C 10.4375 -0.25 10.398438 -0.164062 10.328125 -0.09375 C 10.265625 -0.03125 10.179688 0 10.078125 0 L 8.65625 0 C 8.5625 0 8.476562 -0.03125 8.40625 -0.09375 C 8.34375 -0.164062 8.3125 -0.25 8.3125 -0.34375 L 8.3125 -5.984375 L 6.53125 -2.671875 C 6.5 -2.585938 6.445312 -2.515625 6.375 -2.453125 C 6.300781 -2.390625 6.195312 -2.359375 6.0625 -2.359375 L 5.40625 -2.359375 C 5.28125 -2.359375 5.179688 -2.390625 5.109375 -2.453125 C 5.035156 -2.515625 4.972656 -2.585938 4.921875 -2.671875 L 3.15625 -5.984375 L 3.15625 -0.34375 C 3.15625 -0.25 3.125 -0.164062 3.0625 -0.09375 C 3 -0.03125 2.914062 0 2.8125 0 Z M 1.390625 0 "/></g></g><g style="fill:rgb(29.019165%,40.388489%,57.249451%);fill-opacity:1;"><g transform="translate(201.409563, 274.609465)"><path style="stroke:none;" d="M 5.046875 0.140625 C 4.222656 0.140625 3.5 0.00390625 2.875 -0.265625 C 2.257812 -0.546875 1.785156 -0.972656 1.453125 -1.546875 C 1.117188 -2.117188 0.953125 -2.847656 0.953125 -3.734375 L 0.953125 -9.453125 C 0.953125 -9.554688 0.984375 -9.640625 1.046875 -9.703125 C 1.109375 -9.765625 1.1875 -9.796875 1.28125 -9.796875 L 2.828125 -9.796875 C 2.929688 -9.796875 3.015625 -9.765625 3.078125 -9.703125 C 3.140625 -9.640625 3.171875 -9.554688 3.171875 -9.453125 L 3.171875 -3.75 C 3.171875 -3.070312 3.332031 -2.5625 3.65625 -2.21875 C 3.988281 -1.882812 4.453125 -1.71875 5.046875 -1.71875 C 5.617188 -1.71875 6.066406 -1.882812 6.390625 -2.21875 C 6.722656 -2.5625 6.890625 -3.070312 6.890625 -3.75 L 6.890625 -9.453125 C 6.890625 -9.554688 6.921875 -9.640625 6.984375 -9.703125 C 7.054688 -9.765625 7.140625 -9.796875 7.234375 -9.796875 L 8.78125 -9.796875 C 8.875 -9.796875 8.953125 -9.765625 9.015625 -9.703125 C 9.078125 -9.640625 9.109375 -9.554688 9.109375 -9.453125 L 9.109375 -3.734375 C 9.109375 -2.847656 8.941406 -2.117188 8.609375 -1.546875 C 8.285156 -0.972656 7.816406 -0.546875 7.203125 -0.265625 C 6.585938 0.00390625 5.867188 0.140625 5.046875 0.140625 Z M 5.046875 0.140625 "/></g></g><g style="fill:rgb(29.019165%,40.388489%,57.249451%);fill-opacity:1;"><g transform="translate(219.169968, 274.609465)"><path style="stroke:none;" d="M 4.5625 0.140625 C 3.664062 0.140625 2.914062 0.0078125 2.3125 -0.25 C 1.707031 -0.507812 1.25 -0.847656 0.9375 -1.265625 C 0.632812 -1.691406 0.476562 -2.144531 0.46875 -2.625 C 0.46875 -2.707031 0.492188 -2.773438 0.546875 -2.828125 C 0.597656 -2.878906 0.664062 -2.90625 0.75 -2.90625 L 2.265625 -2.90625 C 2.390625 -2.90625 2.484375 -2.878906 2.546875 -2.828125 C 2.609375 -2.785156 2.671875 -2.726562 2.734375 -2.65625 C 2.796875 -2.488281 2.898438 -2.328125 3.046875 -2.171875 C 3.191406 -2.023438 3.382812 -1.90625 3.625 -1.8125 C 3.875 -1.726562 4.1875 -1.6875 4.5625 -1.6875 C 5.164062 -1.6875 5.617188 -1.78125 5.921875 -1.96875 C 6.234375 -2.164062 6.390625 -2.429688 6.390625 -2.765625 C 6.390625 -3.003906 6.304688 -3.195312 6.140625 -3.34375 C 5.972656 -3.488281 5.710938 -3.625 5.359375 -3.75 C 5.015625 -3.875 4.550781 -4 3.96875 -4.125 C 3.269531 -4.289062 2.675781 -4.488281 2.1875 -4.71875 C 1.695312 -4.957031 1.328125 -5.265625 1.078125 -5.640625 C 0.835938 -6.023438 0.71875 -6.5 0.71875 -7.0625 C 0.71875 -7.613281 0.867188 -8.109375 1.171875 -8.546875 C 1.484375 -8.984375 1.914062 -9.320312 2.46875 -9.5625 C 3.03125 -9.8125 3.703125 -9.9375 4.484375 -9.9375 C 5.109375 -9.9375 5.660156 -9.851562 6.140625 -9.6875 C 6.617188 -9.519531 7.019531 -9.300781 7.34375 -9.03125 C 7.664062 -8.757812 7.910156 -8.46875 8.078125 -8.15625 C 8.242188 -7.851562 8.332031 -7.554688 8.34375 -7.265625 C 8.34375 -7.179688 8.316406 -7.109375 8.265625 -7.046875 C 8.210938 -6.984375 8.140625 -6.953125 8.046875 -6.953125 L 6.484375 -6.953125 C 6.390625 -6.953125 6.304688 -6.96875 6.234375 -7 C 6.160156 -7.039062 6.09375 -7.109375 6.03125 -7.203125 C 5.988281 -7.460938 5.828125 -7.679688 5.546875 -7.859375 C 5.273438 -8.035156 4.921875 -8.125 4.484375 -8.125 C 4.023438 -8.125 3.660156 -8.039062 3.390625 -7.875 C 3.128906 -7.707031 3 -7.453125 3 -7.109375 C 3 -6.890625 3.066406 -6.703125 3.203125 -6.546875 C 3.347656 -6.390625 3.578125 -6.253906 3.890625 -6.140625 C 4.210938 -6.023438 4.644531 -5.898438 5.1875 -5.765625 C 5.988281 -5.597656 6.644531 -5.394531 7.15625 -5.15625 C 7.675781 -4.914062 8.054688 -4.613281 8.296875 -4.25 C 8.546875 -3.882812 8.671875 -3.421875 8.671875 -2.859375 C 8.671875 -2.234375 8.492188 -1.695312 8.140625 -1.25 C 7.796875 -0.800781 7.316406 -0.457031 6.703125 -0.21875 C 6.085938 0.0195312 5.375 0.140625 4.5625 0.140625 Z M 4.5625 0.140625 "/></g></g><g style="fill:rgb(29.019165%,40.388489%,57.249451%);fill-opacity:1;"><g transform="translate(235.992897, 274.609465)"><path style="stroke:none;" d="M 1.375 0 C 1.28125 0 1.195312 -0.03125 1.125 -0.09375 C 1.0625 -0.164062 1.03125 -0.25 1.03125 -0.34375 L 1.03125 -9.453125 C 1.03125 -9.554688 1.0625 -9.640625 1.125 -9.703125 C 1.195312 -9.765625 1.28125 -9.796875 1.375 -9.796875 L 2.984375 -9.796875 C 3.078125 -9.796875 3.15625 -9.765625 3.21875 -9.703125 C 3.28125 -9.640625 3.3125 -9.554688 3.3125 -9.453125 L 3.3125 -0.34375 C 3.3125 -0.25 3.28125 -0.164062 3.21875 -0.09375 C 3.15625 -0.03125 3.078125 0 2.984375 0 Z M 1.375 0 "/></g></g><g style="fill:rgb(29.019165%,40.388489%,57.249451%);fill-opacity:1;"><g transform="translate(248.044486, 274.609465)"><path style="stroke:none;" d="M 4.921875 0.140625 C 4.054688 0.140625 3.316406 -0.00390625 2.703125 -0.296875 C 2.085938 -0.585938 1.609375 -1.015625 1.265625 -1.578125 C 0.929688 -2.148438 0.75 -2.84375 0.71875 -3.65625 C 0.707031 -4.039062 0.703125 -4.453125 0.703125 -4.890625 C 0.703125 -5.328125 0.707031 -5.742188 0.71875 -6.140625 C 0.75 -6.941406 0.9375 -7.625 1.28125 -8.1875 C 1.625 -8.757812 2.101562 -9.191406 2.71875 -9.484375 C 3.332031 -9.785156 4.066406 -9.9375 4.921875 -9.9375 C 5.554688 -9.9375 6.128906 -9.859375 6.640625 -9.703125 C 7.148438 -9.546875 7.59375 -9.316406 7.96875 -9.015625 C 8.34375 -8.710938 8.632812 -8.359375 8.84375 -7.953125 C 9.050781 -7.554688 9.160156 -7.113281 9.171875 -6.625 C 9.179688 -6.539062 9.15625 -6.46875 9.09375 -6.40625 C 9.03125 -6.351562 8.957031 -6.328125 8.875 -6.328125 L 7.265625 -6.328125 C 7.148438 -6.328125 7.0625 -6.351562 7 -6.40625 C 6.9375 -6.457031 6.882812 -6.546875 6.84375 -6.671875 C 6.707031 -7.234375 6.472656 -7.613281 6.140625 -7.8125 C 5.816406 -8.019531 5.410156 -8.125 4.921875 -8.125 C 4.359375 -8.125 3.90625 -7.960938 3.5625 -7.640625 C 3.226562 -7.328125 3.050781 -6.804688 3.03125 -6.078125 C 3 -5.304688 3 -4.519531 3.03125 -3.71875 C 3.050781 -2.988281 3.226562 -2.46875 3.5625 -2.15625 C 3.90625 -1.84375 4.359375 -1.6875 4.921875 -1.6875 C 5.410156 -1.6875 5.820312 -1.785156 6.15625 -1.984375 C 6.488281 -2.191406 6.71875 -2.570312 6.84375 -3.125 C 6.882812 -3.25 6.9375 -3.335938 7 -3.390625 C 7.0625 -3.441406 7.148438 -3.46875 7.265625 -3.46875 L 8.875 -3.46875 C 8.957031 -3.46875 9.03125 -3.4375 9.09375 -3.375 C 9.15625 -3.320312 9.179688 -3.253906 9.171875 -3.171875 C 9.160156 -2.679688 9.050781 -2.234375 8.84375 -1.828125 C 8.632812 -1.429688 8.34375 -1.082031 7.96875 -0.78125 C 7.59375 -0.488281 7.148438 -0.257812 6.640625 -0.09375 C 6.128906 0.0625 5.554688 0.140625 4.921875 0.140625 Z M 4.921875 0.140625 "/></g></g><g style="fill:rgb(29.019165%,40.388489%,57.249451%);fill-opacity:1;"><g transform="translate(265.441084, 274.609465)"><path style="stroke:none;" d=""/></g></g><g style="fill:rgb(29.019165%,40.388489%,57.249451%);fill-opacity:1;"><g transform="translate(276.233365, 274.609465)"><path style="stroke:none;" d="M 1.375 0 C 1.28125 0 1.195312 -0.03125 1.125 -0.09375 C 1.0625 -0.164062 1.03125 -0.25 1.03125 -0.34375 L 1.03125 -9.453125 C 1.03125 -9.554688 1.0625 -9.640625 1.125 -9.703125 C 1.195312 -9.765625 1.28125 -9.796875 1.375 -9.796875 L 5.546875 -9.796875 C 6.316406 -9.796875 6.953125 -9.679688 7.453125 -9.453125 C 7.953125 -9.234375 8.316406 -8.914062 8.546875 -8.5 C 8.785156 -8.09375 8.90625 -7.613281 8.90625 -7.0625 C 8.90625 -6.71875 8.84375 -6.414062 8.71875 -6.15625 C 8.59375 -5.894531 8.4375 -5.679688 8.25 -5.515625 C 8.070312 -5.347656 7.898438 -5.222656 7.734375 -5.140625 C 8.097656 -4.972656 8.414062 -4.691406 8.6875 -4.296875 C 8.96875 -3.910156 9.109375 -3.453125 9.109375 -2.921875 C 9.109375 -2.335938 8.972656 -1.828125 8.703125 -1.390625 C 8.441406 -0.953125 8.054688 -0.609375 7.546875 -0.359375 C 7.035156 -0.117188 6.410156 0 5.671875 0 Z M 3.265625 -1.65625 L 5.40625 -1.65625 C 5.863281 -1.65625 6.207031 -1.78125 6.4375 -2.03125 C 6.675781 -2.289062 6.796875 -2.59375 6.796875 -2.9375 C 6.796875 -3.300781 6.675781 -3.609375 6.4375 -3.859375 C 6.195312 -4.109375 5.851562 -4.234375 5.40625 -4.234375 L 3.265625 -4.234375 Z M 3.265625 -5.84375 L 5.28125 -5.84375 C 5.71875 -5.84375 6.046875 -5.953125 6.265625 -6.171875 C 6.484375 -6.390625 6.59375 -6.671875 6.59375 -7.015625 C 6.59375 -7.359375 6.484375 -7.628906 6.265625 -7.828125 C 6.046875 -8.035156 5.71875 -8.140625 5.28125 -8.140625 L 3.265625 -8.140625 Z M 3.265625 -5.84375 "/></g></g><g style="fill:rgb(29.019165%,40.388489%,57.249451%);fill-opacity:1;"><g transform="translate(293.657955, 274.609465)"><path style="stroke:none;" d="M 4.921875 0.140625 C 4.078125 0.140625 3.347656 0 2.734375 -0.28125 C 2.117188 -0.5625 1.632812 -0.984375 1.28125 -1.546875 C 0.9375 -2.109375 0.753906 -2.820312 0.734375 -3.6875 C 0.722656 -4.082031 0.71875 -4.476562 0.71875 -4.875 C 0.71875 -5.269531 0.722656 -5.675781 0.734375 -6.09375 C 0.753906 -6.925781 0.9375 -7.628906 1.28125 -8.203125 C 1.632812 -8.785156 2.125 -9.21875 2.75 -9.5 C 3.375 -9.789062 4.097656 -9.9375 4.921875 -9.9375 C 5.742188 -9.9375 6.460938 -9.789062 7.078125 -9.5 C 7.703125 -9.21875 8.191406 -8.785156 8.546875 -8.203125 C 8.910156 -7.628906 9.101562 -6.925781 9.125 -6.09375 C 9.144531 -5.675781 9.15625 -5.269531 9.15625 -4.875 C 9.15625 -4.476562 9.144531 -4.082031 9.125 -3.6875 C 9.101562 -2.820312 8.914062 -2.109375 8.5625 -1.546875 C 8.207031 -0.984375 7.722656 -0.5625 7.109375 -0.28125 C 6.492188 0 5.765625 0.140625 4.921875 0.140625 Z M 4.921875 -1.6875 C 5.460938 -1.6875 5.910156 -1.847656 6.265625 -2.171875 C 6.617188 -2.492188 6.800781 -3.019531 6.8125 -3.75 C 6.832031 -4.164062 6.84375 -4.550781 6.84375 -4.90625 C 6.84375 -5.269531 6.832031 -5.648438 6.8125 -6.046875 C 6.800781 -6.535156 6.710938 -6.929688 6.546875 -7.234375 C 6.378906 -7.546875 6.15625 -7.769531 5.875 -7.90625 C 5.601562 -8.050781 5.285156 -8.125 4.921875 -8.125 C 4.566406 -8.125 4.25 -8.050781 3.96875 -7.90625 C 3.695312 -7.769531 3.472656 -7.546875 3.296875 -7.234375 C 3.128906 -6.929688 3.039062 -6.535156 3.03125 -6.046875 C 3.019531 -5.648438 3.015625 -5.269531 3.015625 -4.90625 C 3.015625 -4.550781 3.019531 -4.164062 3.03125 -3.75 C 3.050781 -3.019531 3.234375 -2.492188 3.578125 -2.171875 C 3.929688 -1.847656 4.378906 -1.6875 4.921875 -1.6875 Z M 4.921875 -1.6875 "/></g></g><g style="fill:rgb(29.019165%,40.388489%,57.249451%);fill-opacity:1;"><g transform="translate(311.194468, 274.609465)"><path style="stroke:none;" d="M 3.546875 0 C 3.441406 0 3.351562 -0.03125 3.28125 -0.09375 C 3.21875 -0.164062 3.1875 -0.25 3.1875 -0.34375 L 3.1875 -7.84375 L 0.640625 -7.84375 C 0.546875 -7.84375 0.46875 -7.875 0.40625 -7.9375 C 0.34375 -8 0.3125 -8.082031 0.3125 -8.1875 L 0.3125 -9.453125 C 0.3125 -9.554688 0.34375 -9.640625 0.40625 -9.703125 C 0.46875 -9.765625 0.546875 -9.796875 0.640625 -9.796875 L 7.984375 -9.796875 C 8.085938 -9.796875 8.171875 -9.765625 8.234375 -9.703125 C 8.296875 -9.640625 8.328125 -9.554688 8.328125 -9.453125 L 8.328125 -8.1875 C 8.328125 -8.082031 8.296875 -8 8.234375 -7.9375 C 8.171875 -7.875 8.085938 -7.84375 7.984375 -7.84375 L 5.453125 -7.84375 L 5.453125 -0.34375 C 5.453125 -0.25 5.414062 -0.164062 5.34375 -0.09375 C 5.28125 -0.03125 5.195312 0 5.09375 0 Z M 3.546875 0 "/></g></g></g></svg>